<?xml version="1.0" encoding="iso-8859-1"?>
<!-- Generator: Adobe Illustrator 29.1.0, SVG Export Plug-In . SVG Version: 9.03 Build 55587)  -->
<svg version="1.1" id="Layer_1" xmlns="http://www.w3.org/2000/svg" xmlns:xlink="http://www.w3.org/1999/xlink" x="0px" y="0px"
	 viewBox="0 0 3000 3000" style="enable-background:new 0 0 3000 3000;" xml:space="preserve">
<path d="M2334.354,549.546c-88.056,1.738-203.502,54.973-287.808,52.045c-39.543-1.373-102.272-40.331-152.102-46.286
	c-205.337-24.539-357.422,108.692-412.426,297.566c-23.456,80.544-28.364,178.98-68.855,252.803
	c-35.807,65.284-111.011,126.549-160.578,182.518c-42.227,47.681-81.605,104.942-123.158,150.248
	c-10.786,11.761-27.878,35.886-43.192,21.698c-42.558-40.958-85.899-82.976-131.02-121.015
	c-40.111-33.815-102.03-100.502-107.342-2.608c-14.966-16.488-84.2-65.509-95.425-28.333c-9.756,32.312,28.777,59.034,25.352,73.371
	c-1.797,7.525-19.525,10.809-23.745,19.222c-20.59,41.05,48.094,74.829,51.182,104.998c1.114,10.886-37.672,18.612-31.542,51.95
	c4.495,24.448,86.039,82.668,84.802,97.826c-0.695,8.52-41.892,8.236-37.805,53.603c2.994,33.226,45.457,48.929,47.574,59.524
	c1.753,8.773-9.596,27.83-9.139,41.796c0.426,13.024,12.126,30.874,9.387,42.327c-4.827,20.183-121.517,111.459-145.343,128.262
	c-32.188,22.699-98.389,41.933-95.324,87.144c4.797,70.771,125.819,26.978,168.934,23.998c28.831-1.993,68.74-2.935,107.49-1.696
	c57.397-1.037,115.191,0.391,171.317,13.625c13.433,3.167,26.696,7.099,39.608,11.984c14.609,5.527,28.572,12.571,42.596,19.41
	c14.585,7.113,29.089,14.391,43.605,21.645c7.551,3.773,15.104,7.542,22.674,11.277c3.485,1.719,6.975,3.426,10.465,5.135
	c0.427,0.209,0.761,0.373,1.032,0.506c0.253,0.121,0.558,0.268,0.929,0.447c1.744,0.839,3.487,1.68,5.233,2.516
	c11.651,5.576,22.576,11.522,33.399,18.542c9.95,6.454,19.797,13.07,29.924,19.246c1.482,0.904,2.971,1.796,4.466,2.68
	c32.702,7.501,60.639,14.774,67.698,18.389c13.807,7.072,31.905,54.167,27.654,67.326c-5.026,15.557-69.701,32.88-69.393,81.188
	c0.406,63.703,52.325-11.538,67.3-11.45c23.52,9.793,135.19,74.835,149.874,73.436c18.361-1.75,23.453-28.052,24.379-43.055
	c9.685-8.774,78.307,65.744,80.606,2.514c0.54-14.854-7.275-27.346-2.951-40.007c24.435,37.413,55.525,13.588,91.048,16.052
	c20.547,1.426,89.834,21.604,108.412,31.082c16.069,8.198,40.194,42.749,54.192,18.842c11.468-19.586,4.024-40.254,1.061-60.64
	c4.731-5.978,83.612,63.521,68.469-12.129c-16.772-83.79-141.035-50.976-190.378-67.049c-20.422-6.652-50.518-40.621-43.786-61.976
	c3.804-12.069,73.999-31.424,90.519-38.517c278.963-119.772,439.457-347.219,418.428-659.553
	c-16.931-251.467-317.727-547.725-110.172-785.229c38.626-44.2,213.712-126.522,219.862-139.291
	C2375.01,581.148,2363.103,554.887,2334.354,549.546z M1649.449,2355.213c-2.539,0.063-9.692-29.242-31.847-38.043
	c-57.611-22.885-149.148,18.709-142.473-74.641c45.081,6.656,116.617-8.974,158.141,0c16.683,3.605,64.869,62.207,66.341,78.74
	C1700.346,2329.529,1655.029,2355.076,1649.449,2355.213z"/>
</svg>
