<?xml version="1.0" encoding="UTF-8" standalone="no"?>
<!-- Created with Inkscape (http://www.inkscape.org/) -->

<svg
   width="210mm"
   height="297mm"
   viewBox="0 0 210 297"
   version="1.1"
   id="svg1"
   sodipodi:docname="Stork Dork Initial Architechture Diagram.svg"
   inkscape:version="1.4 (86a8ad7, 2024-10-11)"
   xmlns:inkscape="http://www.inkscape.org/namespaces/inkscape"
   xmlns:sodipodi="http://sodipodi.sourceforge.net/DTD/sodipodi-0.dtd"
   xmlns="http://www.w3.org/2000/svg"
   xmlns:svg="http://www.w3.org/2000/svg">
  <sodipodi:namedview
     id="namedview1"
     pagecolor="#ffffff"
     bordercolor="#000000"
     borderopacity="0.25"
     inkscape:showpageshadow="2"
     inkscape:pageopacity="0.0"
     inkscape:pagecheckerboard="0"
     inkscape:deskcolor="#d1d1d1"
     inkscape:document-units="mm"
     inkscape:zoom="1.0467522"
     inkscape:cx="396.94207"
     inkscape:cy="561.25984"
     inkscape:window-width="2560"
     inkscape:window-height="1377"
     inkscape:window-x="-8"
     inkscape:window-y="-8"
     inkscape:window-maximized="1"
     inkscape:current-layer="layer1" />
  <defs
     id="defs1">
    <rect
       x="33.436757"
       y="820.63354"
       width="180.55849"
       height="125.149"
       id="rect12" />
    <rect
       x="74.5162"
       y="1021.2541"
       width="132.79169"
       height="57.320154"
       id="rect10" />
    <rect
       x="294.24346"
       y="773.82208"
       width="174.82647"
       height="22.928061"
       id="rect46" />
    <marker
       style="overflow:visible"
       id="marker45"
       refX="0"
       refY="0"
       orient="auto-start-reverse"
       inkscape:stockid="Concave triangle arrow"
       markerWidth="1"
       markerHeight="1"
       viewBox="0 0 1 1"
       inkscape:isstock="true"
       inkscape:collect="always"
       preserveAspectRatio="xMidYMid">
      <path
         transform="scale(0.7)"
         d="M -2,-4 9,0 -2,4 c 2,-2.33 2,-5.66 0,-8 z"
         style="fill:context-stroke;fill-rule:evenodd;stroke:none"
         id="path45" />
    </marker>
    <marker
       style="overflow:visible"
       id="marker44"
       refX="0"
       refY="0"
       orient="auto-start-reverse"
       inkscape:stockid="Concave triangle arrow"
       markerWidth="1"
       markerHeight="1"
       viewBox="0 0 1 1"
       inkscape:isstock="true"
       inkscape:collect="always"
       preserveAspectRatio="xMidYMid">
      <path
         transform="scale(0.7)"
         d="M -2,-4 9,0 -2,4 c 2,-2.33 2,-5.66 0,-8 z"
         style="fill:context-stroke;fill-rule:evenodd;stroke:none"
         id="path44" />
    </marker>
    <rect
       x="154.76442"
       y="617.14699"
       width="149.98774"
       height="49.677467"
       id="rect41" />
    <rect
       x="112.72964"
       y="770.95607"
       width="185.33517"
       height="98.399598"
       id="rect39" />
    <rect
       x="132.79169"
       y="598.99561"
       width="181.51382"
       height="67.828849"
       id="rect38" />
    <marker
       style="overflow:visible"
       id="marker38"
       refX="0"
       refY="0"
       orient="auto-start-reverse"
       inkscape:stockid="Concave triangle arrow"
       markerWidth="1"
       markerHeight="1"
       viewBox="0 0 1 1"
       inkscape:isstock="true"
       inkscape:collect="always"
       preserveAspectRatio="xMidYMid">
      <path
         transform="scale(0.7)"
         d="M -2,-4 9,0 -2,4 c 2,-2.33 2,-5.66 0,-8 z"
         style="fill:context-stroke;fill-rule:evenodd;stroke:none"
         id="path38" />
    </marker>
    <marker
       style="overflow:visible"
       id="marker37"
       refX="0"
       refY="0"
       orient="auto-start-reverse"
       inkscape:stockid="Concave triangle arrow"
       markerWidth="1"
       markerHeight="1"
       viewBox="0 0 1 1"
       inkscape:isstock="true"
       inkscape:collect="always"
       preserveAspectRatio="xMidYMid">
      <path
         transform="scale(0.7)"
         d="M -2,-4 9,0 -2,4 c 2,-2.33 2,-5.66 0,-8 z"
         style="fill:context-stroke;fill-rule:evenodd;stroke:none"
         id="path37" />
    </marker>
    <marker
       style="overflow:visible"
       id="marker21"
       refX="0"
       refY="0"
       orient="auto-start-reverse"
       inkscape:stockid="Concave triangle arrow"
       markerWidth="1"
       markerHeight="1"
       viewBox="0 0 1 1"
       inkscape:isstock="true"
       inkscape:collect="always"
       preserveAspectRatio="xMidYMid">
      <path
         transform="scale(0.7)"
         d="M -2,-4 9,0 -2,4 c 2,-2.33 2,-5.66 0,-8 z"
         style="fill:context-stroke;fill-rule:evenodd;stroke:none"
         id="path21" />
    </marker>
    <marker
       style="overflow:visible"
       id="marker20"
       refX="0"
       refY="0"
       orient="auto-start-reverse"
       inkscape:stockid="Concave triangle arrow"
       markerWidth="1"
       markerHeight="1"
       viewBox="0 0 1 1"
       inkscape:isstock="true"
       inkscape:collect="always"
       preserveAspectRatio="xMidYMid">
      <path
         transform="scale(0.7)"
         d="M -2,-4 9,0 -2,4 c 2,-2.33 2,-5.66 0,-8 z"
         style="fill:context-stroke;fill-rule:evenodd;stroke:none"
         id="path20" />
    </marker>
    <rect
       x="14.330039"
       y="83.114223"
       width="132.79169"
       height="48.722131"
       id="rect18" />
    <marker
       style="overflow:visible"
       id="marker18"
       refX="0"
       refY="0"
       orient="auto-start-reverse"
       inkscape:stockid="Concave triangle arrow"
       markerWidth="1"
       markerHeight="1"
       viewBox="0 0 1 1"
       inkscape:isstock="true"
       inkscape:collect="always"
       preserveAspectRatio="xMidYMid">
      <path
         transform="scale(0.7)"
         d="M -2,-4 9,0 -2,4 c 2,-2.33 2,-5.66 0,-8 z"
         style="fill:context-stroke;fill-rule:evenodd;stroke:none"
         id="path18" />
    </marker>
    <marker
       style="overflow:visible"
       id="ConcaveTriangle"
       refX="0"
       refY="0"
       orient="auto-start-reverse"
       inkscape:stockid="Concave triangle arrow"
       markerWidth="1"
       markerHeight="1"
       viewBox="0 0 1 1"
       inkscape:isstock="true"
       inkscape:collect="always"
       preserveAspectRatio="xMidYMid">
      <path
         transform="scale(0.7)"
         d="M -2,-4 9,0 -2,4 c 2,-2.33 2,-5.66 0,-8 z"
         style="fill:context-stroke;fill-rule:evenodd;stroke:none"
         id="path7" />
    </marker>
    <rect
       x="180.55849"
       y="33.436757"
       width="99.354934"
       height="52.543475"
       id="rect15" />
    <marker
       style="overflow:visible"
       id="RoundedArrow"
       refX="0"
       refY="0"
       orient="auto-start-reverse"
       inkscape:stockid="Rounded arrow"
       markerWidth="1"
       markerHeight="1"
       viewBox="0 0 1 1"
       inkscape:isstock="true"
       inkscape:collect="always"
       preserveAspectRatio="xMidYMid">
      <path
         transform="scale(0.7)"
         d="m -0.21114562,-4.1055728 6.42229122,3.21114561 a 1,1 90 0 1 0,1.78885438 L -0.21114562,4.1055728 A 1.236068,1.236068 31.717474 0 1 -2,3 v -6 a 1.236068,1.236068 148.28253 0 1 1.78885438,-1.1055728 z"
         style="fill:context-stroke;fill-rule:evenodd;stroke:none"
         id="path8" />
    </marker>
    <rect
       x="268.44939"
       y="483.39997"
       width="377.35768"
       height="78.337544"
       id="rect9" />
    <rect
       x="269.40472"
       y="296.15413"
       width="213.99524"
       height="55.409482"
       id="rect7" />
    <rect
       x="261.76204"
       y="339.14425"
       width="268.44939"
       height="64.962841"
       id="rect5" />
    <rect
       x="266.53872"
       y="341.05492"
       width="258.89603"
       height="55.409482"
       id="rect4" />
    <rect
       x="258.89603"
       y="227.36994"
       width="106.04229"
       height="30.570749"
       id="rect2" />
    <rect
       x="154.76442"
       y="617.14699"
       width="149.98774"
       height="49.677467"
       id="rect43" />
    <rect
       x="294.24346"
       y="773.82208"
       width="174.82647"
       height="22.928061"
       id="rect48" />
    <rect
       x="294.24346"
       y="773.82208"
       width="174.82647"
       height="22.928061"
       id="rect50" />
    <rect
       x="74.5162"
       y="1021.2541"
       width="188.20117"
       height="93.622919"
       id="rect11" />
    <rect
       x="33.436757"
       y="820.63354"
       width="179.60315"
       height="26.749401"
       id="rect16" />
    <rect
       x="294.24346"
       y="773.82208"
       width="174.82647"
       height="22.928061"
       id="rect19" />
  </defs>
  <g
     inkscape:groupmode="layer"
     id="layer2"
     inkscape:label="Layer 2">
    <rect
       style="fill:#afe9dd;stroke:none;stroke-width:0.703001;stroke-dasharray:none"
       id="rect13"
       width="218.38979"
       height="299.52765"
       x="-4.0442553"
       y="-2.5276597" />
    <ellipse
       style="fill:none;stroke:#a05a2c;stroke-width:0.486406;stroke-dasharray:none"
       id="ellipse27"
       cx="59.905533"
       cy="152.16788"
       rx="26.294455"
       ry="6.3259444" />
    <path
       id="rect27"
       style="fill:none;stroke:#a05a2c;stroke-width:0.499999;stroke-dasharray:none"
       d="M 33.618103 152.41809 L 33.618103 172.89177 L 33.673914 172.89177 A 26.294455 6.3259444 0 0 0 33.610868 173.14189 A 26.294455 6.3259444 0 0 0 59.905387 179.46812 A 26.294455 6.3259444 0 0 0 86.199906 173.14189 A 26.294455 6.3259444 0 0 0 86.177686 172.89177 L 86.193188 172.89177 L 86.193188 152.41809 L 86.136861 152.41809 A 26.294455 6.3259444 0 0 1 59.905387 158.49368 A 26.294455 6.3259444 0 0 1 33.673914 152.41809 L 33.618103 152.41809 z " />
    <path
       style="fill:#000000;stroke:#000000;stroke-width:1.09144;stroke-dasharray:none;marker-start:url(#marker18);marker-end:url(#ConcaveTriangle)"
       d="M 37.455808,15.165957 H 8.5475954"
       id="path16" />
    <text
       xml:space="preserve"
       transform="scale(0.26458333)"
       id="text18"
       style="font-size:21.3333px;text-align:center;writing-mode:lr-tb;direction:ltr;white-space:pre;shape-inside:url(#rect18);fill:#000000;stroke:none;stroke-width:4.4485;stroke-dasharray:none"><tspan
         x="46.204807"
         y="102.5763"
         id="tspan1">HTTPS</tspan></text>
    <path
       style="fill:none;stroke:#000000;stroke-width:0.356386;stroke-dasharray:none;marker-start:url(#marker20);marker-end:url(#marker21)"
       d="m 79.722279,118.90406 v 14.52995 H 60.903414 v 9.91949"
       id="path19" />
    <path
       style="fill:#c87137;stroke:none;stroke-width:1.80536;stroke-dasharray:none"
       d="m 196.32153,675.84465 c -32.48389,-2.84384 -56.94727,-9.20126 -65.20168,-16.94428 l -2.62717,-2.46441 V 619.48168 582.5274 l 7.93239,3.98108 c 36.85232,18.49531 143.12676,18.49531 179.97908,0 l 7.93239,-3.98108 v 36.95428 36.95428 l -2.62717,2.50997 c -7.19477,6.87379 -26.60694,12.46009 -55.64832,16.01408 -11.18092,1.36828 -57.50328,1.95588 -69.73952,0.88464 z"
       id="path30"
       transform="scale(0.26458333)" />
    <path
       style="fill:#c87137;stroke:none;stroke-width:1.80536;stroke-dasharray:none"
       d="m 196.32153,596.55177 c -39.55152,-3.46258 -67.82885,-12.57891 -67.82885,-21.86732 0,-4.48329 11.95652,-10.97114 27.22707,-14.77396 38.72249,-9.64304 102.66723,-9.64304 141.38972,0 15.27054,3.80282 27.22707,10.29067 27.22707,14.77396 0,8.48996 -22.55584,16.61142 -58.27549,20.98268 -11.18092,1.36828 -57.50328,1.95588 -69.73952,0.88464 z"
       id="path31"
       transform="scale(0.26458333)" />
    <ellipse
       style="fill:none;stroke:#a05a2c;stroke-width:0.486406;stroke-dasharray:none"
       id="ellipse31"
       cx="145.08766"
       cy="152.92618"
       rx="26.294455"
       ry="6.3259444" />
    <path
       id="path32"
       style="fill:none;stroke:#a05a2c;stroke-width:0.499999;stroke-dasharray:none"
       d="m 118.80023,153.17639 v 20.47368 h 0.0558 a 26.294455,6.3259444 0 0 0 -0.063,0.25012 26.294455,6.3259444 0 0 0 26.29451,6.32623 26.294455,6.3259444 0 0 0 26.29452,-6.32623 26.294455,6.3259444 0 0 0 -0.0222,-0.25012 h 0.0155 v -20.47368 h -0.0563 a 26.294455,6.3259444 0 0 1 -26.23148,6.07559 26.294455,6.3259444 0 0 1 -26.23147,-6.07559 z" />
    <path
       style="fill:#c87137;stroke:none;stroke-width:0.477668;stroke-dasharray:none"
       d="m 137.12553,179.57553 c -8.59469,-0.75244 -15.0673,-2.4345 -17.25128,-4.48318 l -0.6951,-0.65204 v -9.77749 -9.77748 l 2.09878,1.05332 c 9.75051,4.89356 37.86895,4.89356 47.61946,0 l 2.09878,-1.05332 v 9.77748 9.77749 l -0.69511,0.6641 c -1.90361,1.81869 -7.03975,3.29673 -14.72361,4.23705 -2.95829,0.36203 -15.21441,0.5175 -18.45192,0.23407 z"
       id="path33" />
    <path
       style="fill:#c87137;stroke:none;stroke-width:0.477668;stroke-dasharray:none"
       d="m 137.12553,158.59595 c -10.46467,-0.91614 -17.94638,-3.32817 -17.94638,-5.78573 0,-1.1862 3.16349,-2.90278 7.20383,-3.90894 10.24532,-2.55139 27.16404,-2.55139 37.40936,0 4.04033,1.00616 7.20383,2.72274 7.20383,3.90894 0,2.24631 -5.9679,4.39511 -15.41872,5.55167 -2.95829,0.36202 -15.21441,0.51749 -18.45192,0.23406 z"
       id="path34" />
    <path
       style="fill:none;stroke:#000000;stroke-width:0.44592;stroke-dasharray:none;marker-start:url(#marker37);marker-end:url(#marker38)"
       d="m 136.98804,116.61683 v 13.3409 h 15.18817 v 13.64074"
       id="path36" />
    <text
       xml:space="preserve"
       transform="scale(0.26458333)"
       id="text38"
       style="fill:#ffffff;text-orientation:auto;font-size:21.33333333px;text-align:center;writing-mode:lr-tb;direction:ltr;stroke:#000000;stroke-width:1.88976378;stroke-dasharray:none;white-space:pre;shape-inside:url(#rect38)" />
  </g>
  <g
     inkscape:label="Layer 1"
     inkscape:groupmode="layer"
     id="layer1">
    <rect
       style="fill:#d5ffd5;stroke:#2aff2a;stroke-width:0.260859"
       id="rect1"
       width="104.1433"
       height="78.866707"
       x="55.60664"
       y="34.879837" />
    <text
       xml:space="preserve"
       transform="matrix(0.26458333,0,0,0.26458333,26.287659,-33.870639)"
       id="text1"
       style="font-size:24px;text-align:start;writing-mode:lr-tb;direction:ltr;white-space:pre;shape-inside:url(#rect2);fill:#000000"><tspan
         x="258.89648"
         y="249.26507"
         id="tspan3">WebApp</tspan></text>
    <path
       d="M 71.336353,45.806926 V 66.168474 H 143.76759 V 45.806926 Z"
       style="fill:#ffffff;stroke:#000000;stroke-width:0.377485"
       id="path10" />
    <text
       xml:space="preserve"
       transform="scale(0.26458333)"
       id="text4"
       style="font-size:24px;text-align:start;writing-mode:lr-tb;direction:ltr;white-space:pre;shape-inside:url(#rect4);fill:#000000;stroke:#000000" />
    <text
       xml:space="preserve"
       transform="matrix(0.26458333,0,0,0.26458333,3.0331912,-41.706383)"
       id="text5"
       style="font-size:24px;text-align:center;writing-mode:lr-tb;direction:ltr;white-space:pre;shape-inside:url(#rect5);fill:#000000;stroke:none"
       x="112.59375"
       y="0"><tspan
         x="282.77148"
         y="361.04046"
         id="tspan4">ASP.NET Core MVC
</tspan><tspan
         x="334.32227"
         y="391.04046"
         id="tspan6">8.0.12 C#</tspan></text>
    <path
       d="M 56.071135,74.270305 V 85.730587 H 108.98522 V 74.270305 Z"
       style="fill:#ffffff;stroke:#000000;stroke-width:0.178729"
       id="path9" />
    <text
       xml:space="preserve"
       transform="matrix(0.26458333,0,0,0.26458333,-17.440851,-1.5165957)"
       id="text7"
       style="font-size:21.3333px;text-align:center;writing-mode:lr-tb;direction:ltr;white-space:pre;shape-inside:url(#rect7);fill:#000000;stroke:none"><tspan
         x="286.24103"
         y="315.61731"
         id="tspan8">ASP.NET Identity</tspan></text>
    <rect
       style="fill:#ffffff;stroke:#000000;stroke-width:0.227525"
       id="rect8"
       width="104.68214"
       height="17.730675"
       x="55.337208"
       y="95.779762" />
    <text
       xml:space="preserve"
       transform="matrix(0.26458333,0,0,0.26458333,-14.660426,-27.045958)"
       id="text8"
       style="font-size:26.6667px;text-align:center;writing-mode:lr-tb;direction:ltr;white-space:pre;shape-inside:url(#rect9);fill:#000000;stroke:none"
       x="0"
       y="0"><tspan
         x="303.23451"
         y="507.72923"
         id="tspan14">Entity Framework Core</tspan></text>
    <path
       style="fill:#000000;stroke:#000000;stroke-width:0.703;stroke-dasharray:none;marker-start:url(#RoundedArrow);marker-end:url(#RoundedArrow)"
       d="M 131.81745,71.839107 V 90.183869"
       id="path11" />
    <path
       style="fill:#000000;stroke:#000000;stroke-width:0.335699;stroke-dasharray:none;marker-start:url(#RoundedArrow);marker-end:url(#RoundedArrow)"
       d="M 86.951491,68.303747 V 72.48689"
       id="path12" />
    <path
       style="fill:#000000;stroke:#000000;stroke-width:0.389928;stroke-dasharray:none;marker-start:url(#RoundedArrow);marker-end:url(#RoundedArrow)"
       d="m 83.160002,87.794703 v 5.643786"
       id="path13" />
    <rect
       style="fill:#ffffff;stroke:#000000;stroke-width:0.22328;stroke-dasharray:none"
       id="rect14"
       width="33.771587"
       height="22.649891"
       x="43.904415"
       y="4.22016" />
    <text
       xml:space="preserve"
       transform="scale(0.26458333)"
       id="text14"
       style="font-size:21.3333336px;text-align:center;writing-mode:lr-tb;direction:ltr;white-space:pre;shape-inside:url(#rect15);fill:#000000;stroke:none;stroke-width:1.42488;stroke-dasharray:none"><tspan
         x="187.18952"
         y="52.900516"
         id="tspan16">IIS Web </tspan><tspan
         x="194.91347"
         y="79.567142"
         id="tspan18">Server</tspan></text>
    <path
       style="fill:#000000;stroke:#000000;stroke-width:0.335699;stroke-dasharray:none;marker-start:url(#RoundedArrow);marker-end:url(#RoundedArrow)"
       d="m 69.005108,28.619492 v 4.183143"
       id="path15" />
    <text
       xml:space="preserve"
       transform="scale(0.26458333)"
       id="text39"
       style="fill:#ffffff;text-orientation:auto;font-size:21.33333333px;text-align:center;writing-mode:lr-tb;direction:ltr;stroke:#000000;stroke-width:1.88976378;stroke-dasharray:none;white-space:pre;shape-inside:url(#rect39)" />
    <rect
       style="fill:#ffffff;stroke:#000000;stroke-width:0.499999;stroke-dasharray:none"
       id="rect40"
       width="42.211918"
       height="15.671508"
       x="38.16766"
       y="160.25362" />
    <text
       xml:space="preserve"
       transform="matrix(0.26458333,0,0,0.26458333,-1.2638298,-1.0110638)"
       id="text40"
       style="font-size:18.6667px;text-align:center;writing-mode:lr-tb;direction:ltr;white-space:pre;shape-inside:url(#rect41);fill:#000000;stroke:none;stroke-width:1.88976;stroke-dasharray:none"><tspan
         x="161.94975"
         y="634.17668"
         id="tspan19">Authentication </tspan><tspan
         x="159.77592"
         y="657.51006"
         id="tspan20">DB SQL Server</tspan></text>
    <rect
       style="fill:#ffffff;stroke:#000000;stroke-width:0.499999;stroke-dasharray:none"
       id="rect42"
       width="42.211918"
       height="15.671508"
       x="124.10809"
       y="161.01192" />
    <text
       xml:space="preserve"
       transform="matrix(0.26458333,0,0,0.26458333,84.676596,-0.25276593)"
       id="text42"
       style="font-size:18.6667px;text-align:center;writing-mode:lr-tb;direction:ltr;white-space:pre;shape-inside:url(#rect43);fill:#000000;stroke:none;stroke-width:1.88976;stroke-dasharray:none"><tspan
         x="166.37944"
         y="634.17668"
         id="tspan21">Main WebApp
</tspan><tspan
         x="159.77592"
         y="657.51006"
         id="tspan22">DB SQL Server</tspan></text>
    <path
       style="fill:#ffffff;stroke:#000000;stroke-width:0.5;stroke-dasharray:none;marker-start:url(#marker44);marker-end:url(#marker45)"
       d="m 102.62298,116.01957 v 80.12681"
       id="path43" />
    <rect
       style="fill:#ffffff;stroke:#000000;stroke-width:0.282885;stroke-dasharray:none"
       id="rect45"
       width="32.31839"
       height="12.855411"
       x="87.601227"
       y="201.59868" />
    <text
       xml:space="preserve"
       transform="matrix(0.26458333,0,0,0.26458333,2.5276599,0.50553187)"
       id="text45"
       style="font-size:18.6667px;text-align:center;writing-mode:lr-tb;direction:ltr;white-space:pre;shape-inside:url(#rect46);fill:#000000;stroke:none;stroke-width:1.88976;stroke-dasharray:none"><tspan
         x="335.57837"
         y="790.85246"
         id="tspan23">Controller</tspan></text>
    <rect
       style="fill:#ffffff;stroke:#000000;stroke-width:0.282885;stroke-dasharray:none"
       id="rect47"
       width="32.31839"
       height="12.855411"
       x="44.883781"
       y="201.59868" />
    <text
       xml:space="preserve"
       transform="matrix(0.26458333,0,0,0.26458333,-40.189787,0.50553187)"
       id="text47"
       style="font-size:18.6667px;text-align:center;writing-mode:lr-tb;direction:ltr;white-space:pre;shape-inside:url(#rect48);fill:#000000;stroke:none;stroke-width:1.88976;stroke-dasharray:none"><tspan
         x="354.19038"
         y="790.85246"
         id="tspan24">Model</tspan></text>
    <rect
       style="fill:#ffffff;stroke:#000000;stroke-width:0.282885;stroke-dasharray:none"
       id="rect49"
       width="32.31839"
       height="12.855411"
       x="129.30762"
       y="201.59868" />
    <text
       xml:space="preserve"
       transform="matrix(0.26458333,0,0,0.26458333,44.234043,0.50553187)"
       id="text49"
       style="font-size:18.6667px;text-align:center;writing-mode:lr-tb;direction:ltr;white-space:pre;shape-inside:url(#rect50);fill:#000000;stroke:none;stroke-width:1.88976;stroke-dasharray:none"><tspan
         x="359.51786"
         y="790.85246"
         id="tspan25">View</tspan></text>
    <path
       style="fill:#000000;stroke:#000000;stroke-width:0.335699;stroke-dasharray:none;marker-start:url(#RoundedArrow);marker-end:url(#RoundedArrow)"
       d="m 84.998804,207.89704 -4.183136,0.006"
       id="path50" />
    <path
       style="fill:#000000;stroke:#000000;stroke-width:0.335699;stroke-dasharray:none;marker-start:url(#RoundedArrow);marker-end:url(#RoundedArrow)"
       d="m 126.95795,208.65534 -4.18313,0.006"
       id="path51" />
    <path
       style="fill:#000000;stroke:#000000;stroke-width:0.499999;stroke-dasharray:none;marker-start:url(#marker18);marker-end:url(#marker18)"
       d="M 91.248509,218.89532 49.542128,259.59063"
       id="path52" />
    <path
       style="fill:#000000;stroke:#000000;stroke-width:0.499999;stroke-dasharray:none;marker-start:url(#marker18);marker-end:url(#marker18)"
       d="M 91.248509,218.89532 49.542128,259.59063"
       id="path1" />
    <path
       style="fill:#000000;stroke:#000000;stroke-width:0.499999;stroke-dasharray:none;marker-start:url(#marker18);marker-end:url(#marker18)"
       d="M 156.65516,261.16535 116.0793,219.34274"
       id="path2" />
    <rect
       style="fill:#ffffff;stroke:#000000;stroke-width:0.264583"
       id="rect3"
       width="42.211914"
       height="24.771063"
       x="16.429787"
       y="265.40427" />
    <rect
       style="fill:#ffffff;stroke:#000000;stroke-width:0.264583"
       id="rect6"
       width="42.211914"
       height="24.771063"
       x="144.58212"
       y="267.17361" />
    <text
       xml:space="preserve"
       transform="scale(0.26458333)"
       id="text6"
       style="font-size:24px;text-align:center;writing-mode:lr-tb;direction:ltr;white-space:pre;shape-inside:url(#rect10);fill:#000000;stroke:none"
       x="54.550781"
       y="0"><tspan
         x="84.9375"
         y="1043.1498"
         id="tspan26">eBird API
</tspan><tspan
         x="112.48828"
         y="1073.1498"
         id="tspan27">Calls</tspan></text>
    <text
       xml:space="preserve"
       transform="matrix(0.26458333,0,0,0.26458333,121.58042,-1.7693617)"
       id="text11"
       style="font-size:24px;text-align:center;writing-mode:lr-tb;direction:ltr;white-space:pre;shape-inside:url(#rect11);fill:#000000;stroke:none"
       x="54.550781"
       y="0"><tspan
         x="118.38965"
         y="1043.1498"
         id="tspan28">Mapping </tspan><tspan
         x="99.639648"
         y="1073.1498"
         id="tspan29">API</tspan><tspan
         x="140.19238"
         y="1103.1498"
         id="tspan30">Calls</tspan></text>
    <text
       xml:space="preserve"
       transform="matrix(0.26458333,0,0,0.26458333,4.0442553,5.3080851)"
       id="text12"
       style="font-size:18.6667px;text-align:center;writing-mode:lr-tb;direction:ltr;white-space:pre;shape-inside:url(#rect12);fill:#000000;stroke:none"><tspan
         x="61.860565"
         y="837.66301"
         id="tspan31">- Bird Search
</tspan><tspan
         x="44.242044"
         y="860.99638"
         id="tspan32">- Hotspot Search
</tspan><tspan
         x="48.849474"
         y="884.32976"
         id="tspan33">- Region Search
</tspan><tspan
         x="54.336463"
         y="907.66313"
         id="tspan34">- Audio Search</tspan></text>
    <text
       xml:space="preserve"
       transform="matrix(0.26458333,0,0,0.26458333,127.39405,18.704681)"
       id="text13"
       style="font-size:18.6667px;text-align:center;writing-mode:lr-tb;direction:ltr;white-space:pre;shape-inside:url(#rect16);fill:#000000;stroke:none"><tspan
         x="51.292188"
         y="837.66301"
         id="tspan35">- Mapping/Location Data</tspan></text>
    <rect
       style="fill:#decd87;stroke:#000000;stroke-width:0.282885;stroke-dasharray:none"
       id="rect17"
       width="32.31839"
       height="12.855411"
       x="177.58592"
       y="0.39697647" />
    <text
       xml:space="preserve"
       transform="matrix(0.26458333,0,0,0.26458333,92.512341,-200.69617)"
       id="text17"
       style="font-size:18.6667px;text-align:center;writing-mode:lr-tb;direction:ltr;white-space:pre;shape-inside:url(#rect19);fill:#000000;stroke:none;stroke-width:1.88976;stroke-dasharray:none"><tspan
         x="354.92411"
         y="790.85246"
         id="tspan36">Azure</tspan></text>
  </g>
</svg>
