<?xml version="1.0" encoding="UTF-8"?>
<svg version="1.1" xmlns="http://www.w3.org/2000/svg" width="1024" height="1024">
<path d="M0 0 C0.78618713 0.04384827 1.57237427 0.08769653 2.38238525 0.13287354 C28.57866465 1.62055367 54.52070231 4.46243291 79.9375 11.1875 C82.93288927 11.95695779 85.93373395 12.7014967 88.9375 13.4375 C89.66880127 13.62505859 90.40010254 13.81261719 91.15356445 14.00585938 C96.12548581 15.32998494 96.12548581 15.32998494 100.9375 14.1875 C103.01300859 12.46784607 103.01300859 12.46784607 105.0625 10.375 C114.34965931 1.85158734 125.04788083 0.84711126 137.2421875 0.9765625 C147.93892046 1.58715825 157.98888819 4.32710913 165.78125 12.00390625 C171.81042017 19.31870829 173.19524476 27.98353508 173.9375 37.1875 C174.79408203 36.84525391 174.79408203 36.84525391 175.66796875 36.49609375 C185.17838292 33.12435709 193.9504776 33.43950552 203.125 37.75 C215.64088237 44.71607664 226.47479694 54.79194797 231.35546875 68.609375 C232.90547427 75.47517125 232.82215324 82.69703021 229.9375 89.1875 C230.5975 89.1875 231.2575 89.1875 231.9375 89.1875 C233.48828125 90.7265625 233.48828125 90.7265625 235.25 92.8125 C235.86617187 93.53953125 236.48234375 94.2665625 237.1171875 95.015625 C238.01824219 96.09070313 238.01824219 96.09070313 238.9375 97.1875 C239.45570313 97.78046875 239.97390625 98.3734375 240.5078125 98.984375 C243.9375 102.94321429 243.9375 102.94321429 243.9375 105.1875 C244.5975 105.1875 245.2575 105.1875 245.9375 105.1875 C247.78218487 107.5898102 249.49998683 109.99020667 251.1875 112.5 C251.68403076 113.23186523 252.18056152 113.96373047 252.69213867 114.71777344 C256.47868639 120.3631944 259.88555934 126.11015729 262.9375 132.1875 C263.49566406 133.28964844 264.05382812 134.39179688 264.62890625 135.52734375 C266.07767175 138.40806773 267.5136667 141.29439192 268.9375 144.1875 C274.24259617 140.95527702 274.24259617 140.95527702 279.3125 137.375 C280.9375 136.1875 280.9375 136.1875 282.9375 136.1875 C283.5975 133.8775 284.2575 131.5675 284.9375 129.1875 C286.5875 129.5175 288.2375 129.8475 289.9375 130.1875 C291.20242671 134.61474348 291.20242671 134.61474348 289.97265625 137.2734375 C288.50232917 141.41254695 288.68713122 145.26720116 288.75 149.625 C288.75064453 150.43904297 288.75128906 151.25308594 288.75195312 152.09179688 C288.78659175 157.07591016 289.0741829 161.99071658 289.49609375 166.95703125 C290.04039849 174.19131812 289.74321865 181.21315759 289.1875 188.4375 C289.11273437 189.62601563 289.03796875 190.81453125 288.9609375 192.0390625 C288.27162664 201.50142072 286.55877154 209.82519912 281.9375 218.1875 C282.9275 218.1875 283.9175 218.1875 284.9375 218.1875 C283.45289645 224.32836014 281.87728781 230.4017919 280.0078125 236.4375 C277.72652162 244.38113096 276.54771391 252.36767286 275.4147644 260.54229736 C266.5064288 324.27513723 266.5064288 324.27513723 246.9375 339.1875 C237.59024647 346.0895645 228.43480232 351.7486783 216.9375 354.1875 C216.24849609 354.36700195 215.55949219 354.54650391 214.84960938 354.73144531 C206.10207733 356.82668409 197.37760766 356.11558454 188.4609375 355.58203125 C181.58448991 355.25779852 181.58448991 355.25779852 175.43896484 357.87646484 C173.46408302 359.89307932 171.70718094 361.99149422 169.9375 364.1875 C167.1796875 366.2109375 167.1796875 366.2109375 164.8125 367.5625 C164.02617188 368.02398438 163.23984375 368.48546875 162.4296875 368.9609375 C155.06635079 372.58489945 148.04167971 373.20694755 139.9375 372.1875 C135.6622134 370.5925991 131.83399633 368.54762613 127.9375 366.1875 C125.99072951 364.94156677 125.99072951 364.94156677 123.93579102 365.69726562 C123.11264404 365.99310547 122.28949707 366.28894531 121.44140625 366.59375 C120.50449951 366.92205811 119.56759277 367.25036621 118.60229492 367.58862305 C117.5785376 367.95125244 116.55478027 368.31388184 115.5 368.6875 C64.21607409 386.25144204 11.73619302 390.80317 -42.0625 390.1875 C-43.16416504 390.17493164 -44.26583008 390.16236328 -45.40087891 390.14941406 C-72.13319764 389.71300439 -98.93604133 385.6506912 -125.0625 380.1875 C-125.98385742 379.99575195 -126.90521484 379.80400391 -127.85449219 379.60644531 C-136.20527458 377.83117836 -144.36813875 375.83350423 -152.42578125 372.98828125 C-166.57987314 367.5755429 -166.57987314 367.5755429 -181.2109375 369.22265625 C-195.21496228 372.73076388 -211.85293811 371.74034949 -224.5546875 364.83203125 C-229.53444144 361.78703417 -233.83500224 358.09835933 -237.0625 353.1875 C-237.0625 352.5275 -237.0625 351.8675 -237.0625 351.1875 C-243.10869845 352.09871785 -248.99329881 353.12401163 -254.875 354.8125 C-270.80817935 358.80608759 -289.60980739 355.99677514 -303.77416992 347.61474609 C-306.38594309 345.94613931 -308.92650669 344.20183813 -311.43066406 342.37597656 C-312.87284978 341.32562347 -314.35208998 340.32656246 -315.8359375 339.3359375 C-327.84905451 330.91478238 -332.90876932 315.04200386 -336.625 301.4375 C-337.0732312 299.81122681 -337.0732312 299.81122681 -337.53051758 298.15209961 C-341.01410555 285.13806571 -343.1232305 271.96617049 -344.98046875 258.63671875 C-346.69392504 246.54209589 -348.85647828 235.17414121 -352.890625 223.625 C-354.0625 220.1875 -354.0625 220.1875 -354.0625 218.1875 C-353.0725 218.1875 -352.0825 218.1875 -351.0625 218.1875 C-351.68125 217.094375 -352.3 216.00125 -352.9375 214.875 C-357.2119285 206.2867819 -357.52428179 196.1779458 -358.25 186.75 C-358.33749512 185.61908936 -358.42499023 184.48817871 -358.51513672 183.32299805 C-359.16232591 173.93478426 -358.86527817 164.79955865 -358.20166016 155.42871094 C-357.97807925 151.82788157 -357.90236972 148.23206477 -357.875 144.625 C-357.86082031 143.44808594 -357.84664062 142.27117187 -357.83203125 141.05859375 C-357.84429636 137.98793131 -357.84429636 137.98793131 -360.0625 135.1875 C-359.6875 132.5 -359.6875 132.5 -359.0625 130.1875 C-357.4125 129.8575 -355.7625 129.5275 -354.0625 129.1875 C-353.835625 130.30125 -353.60875 131.415 -353.375 132.5625 C-352.4865896 136.30136332 -352.4865896 136.30136332 -349.75 137.375 C-348.863125 137.643125 -347.97625 137.91125 -347.0625 138.1875 C-345.3550002 139.46812485 -343.69606951 140.81381655 -342.0625 142.1875 C-337.82372824 145.54652668 -333.57521674 148.86229804 -329.125 151.9375 C-326.0625 154.1875 -326.0625 154.1875 -324.0625 157.1875 C-323.65386719 156.06730469 -323.24523437 154.94710937 -322.82421875 153.79296875 C-317.85934549 140.57751617 -311.91969526 127.93123082 -304.0625 116.1875 C-303.36769531 115.08148438 -302.67289063 113.97546875 -301.95703125 112.8359375 C-301.33183594 111.96195312 -300.70664062 111.08796875 -300.0625 110.1875 C-299.4025 110.1875 -298.7425 110.1875 -298.0625 110.1875 C-297.83304688 109.4759375 -297.60359375 108.764375 -297.3671875 108.03125 C-295.79628556 104.60724817 -293.7740026 102.41982916 -291.1875 99.6875 C-288.62565776 96.96506467 -286.15233213 94.30386618 -283.8671875 91.34375 C-283.27164063 90.6321875 -282.67609375 89.920625 -282.0625 89.1875 C-281.4025 89.1875 -280.7425 89.1875 -280.0625 89.1875 C-280.0625 88.5275 -280.0625 87.8675 -280.0625 87.1875 C-279.4025 87.1875 -278.7425 87.1875 -278.0625 87.1875 C-278.56057293 83.40214574 -279.4253949 79.88318948 -280.5625 76.25 C-284.8246739 62.31996821 -283.59444146 48.36415125 -277.5625 35.0625 C-269.21761374 19.59141137 -255.05198794 9.62184243 -238.6640625 4.02734375 C-218.79464786 -1.88264205 -196.84955015 -1.35878681 -178.10400391 8.18457031 C-175.00929596 9.87960347 -171.99642194 11.66979934 -168.98828125 13.515625 C-166.55971717 14.9033759 -164.78654379 15.73680662 -162.0625 16.1875 C-161.67320312 15.66800781 -161.28390625 15.14851563 -160.8828125 14.61328125 C-154.75814375 6.97861353 -147.47692859 3.05780661 -137.828125 1.46484375 C-128.27202783 0.50653457 -117.67295037 0.16779105 -108.74780273 4.24487305 C-105.78464261 5.28503681 -104.01005315 5.27028391 -100.9140625 4.90234375 C-99.94758789 4.7926123 -98.98111328 4.68288086 -97.98535156 4.56982422 C-94.41775486 4.10316398 -90.85187707 3.62718449 -87.2878418 3.1340332 C-74.46727505 1.40668832 -61.66367624 0.61203961 -48.75 0 C-47.42086578 -0.06391434 -47.42086578 -0.06391434 -46.06488037 -0.12911987 C-30.64378097 -0.85780369 -15.41659567 -0.8653519 0 0 Z M-253.0625 324.1875 C-252.0625 326.1875 -252.0625 326.1875 -252.0625 326.1875 Z M-252.0625 326.1875 C-251.72730526 331.55061579 -248.52115747 335.31574761 -245.0625 339.1875 C-243.7560864 340.2224209 -242.42886053 341.23312236 -241.0625 342.1875 C-240.95590403 338.3833562 -241.07324912 334.87517869 -242.0625 331.1875 C-244.40689466 328.75551257 -246.90551704 327.35603562 -250.0625 326.1875 C-250.7225 326.1875 -251.3825 326.1875 -252.0625 326.1875 Z " fill="#2D1818" transform="translate(523.0625,333.8125)"/>
<path d="M0 0 C1.24007813 -0.00257813 2.48015625 -0.00515625 3.7578125 -0.0078125 C6.875 0.125 6.875 0.125 8.875 1.125 C11.08157683 1.37050386 13.2903704 1.59618889 15.5 1.8125 C32.91289886 3.89288653 47.41183667 11.80467613 58.875 25.125 C68.44923891 37.7622248 72.05825503 50.59010761 72.125 66.125 C72.145625 67.29417969 72.16625 68.46335937 72.1875 69.66796875 C72.26968233 88.17953889 65.85546896 104.1208932 53.4375 117.8125 C52.591875 118.575625 51.74625 119.33875 50.875 120.125 C50.24207031 120.73859375 49.60914063 121.3521875 48.95703125 121.984375 C36.71329288 133.51299237 20.7622893 140.27824797 4 140.375 C2.67162109 140.4059375 2.67162109 140.4059375 1.31640625 140.4375 C-3.93595643 140.46881066 -7.5848908 140.07070865 -12.125 137.125 C-15.66823666 133.21522162 -16.25023725 129.8240814 -16.25439453 124.66210938 C-16.25748627 123.52933563 -16.260578 122.39656189 -16.26376343 121.22946167 C-16.26179962 119.98842682 -16.25983582 118.74739197 -16.2578125 117.46875 C-16.25931305 116.16656525 -16.2608136 114.86438049 -16.26235962 113.5227356 C-16.26614551 109.22347002 -16.25847773 104.92425603 -16.25 100.625 C-16.24772875 99.14882411 -16.24549087 97.67264816 -16.24328613 96.19647217 C-16.22670365 86.26486637 -16.18659994 76.33344852 -16.13615417 66.40196228 C-16.12515046 64.15571402 -16.11542608 61.90946372 -16.1060791 59.66320801 C-16.07029496 51.3195747 -16.01046852 42.97672431 -15.91546631 34.63354492 C-15.8885335 32.04880731 -15.86820699 29.46399225 -15.85455322 26.87915039 C-15.83354161 23.28610573 -15.78742659 19.69425722 -15.734375 16.1015625 C-15.73313629 15.04107697 -15.73189758 13.98059143 -15.73062134 12.88796997 C-15.58576862 5.75673096 -15.58576862 5.75673096 -13.19970703 2.48535156 C-8.95293088 -0.29919029 -5.00852033 -0.0104562 0 0 Z " fill="#FCF2E0" transform="translate(322.125,538.875)"/>
<path d="M0 0 C4.48500434 3.52874215 7.88180047 7.27886743 10.875 12.125 C11.49375 13.07375 12.1125 14.0225 12.75 15 C14.34951228 19.44308968 14.55916242 23.45749196 13.875 28.125 C10.69167411 34.49165178 5.49342199 38.60999964 -1.125 41.125 C-4.75 41.1875 -4.75 41.1875 -8.125 40.125 C-10.75612242 37.04282803 -12.35459541 33.67166456 -14.125 30.0625 C-17.87492619 22.53402223 -22.29229822 19.14139704 -30.125 16.125 C-33.90091152 15.55505109 -35.45053619 15.80309682 -38.875 17.4375 C-41.41667666 19.34375749 -42.89112569 20.96462361 -43.53125 24.140625 C-43.57765625 25.24664062 -43.57765625 25.24664062 -43.625 26.375 C-43.6765625 27.10203125 -43.728125 27.8290625 -43.78125 28.578125 C-42.36506771 34.07426105 -37.94707669 37.80812611 -33.27734375 40.75 C-31.88024886 41.55544437 -30.47493999 42.34677892 -29.0625 43.125 C-28.31806641 43.55014893 -27.57363281 43.97529785 -26.80664062 44.41333008 C-22.29446264 46.9743874 -17.71989966 49.40410147 -13.125 51.8125 C-2.48401661 57.49122929 8.02949255 65.25048336 12.2109375 77.03125 C14.64161502 88.35534761 14.02537746 100.11380165 7.875 110.125 C0.59965163 120.52987739 -9.68296465 126.34936219 -22.06933594 128.81152344 C-37.32410939 131.1377858 -51.74097043 128.90859675 -64.6171875 120.10546875 C-72.38455651 113.971425 -77.10773901 107.0173084 -79.875 97.5625 C-80.57240673 90.76278441 -80.70275046 86.73076135 -76.75390625 81.015625 C-72.53433817 76.11809275 -66.61546945 71.48117035 -60.0625 70.8125 C-57.125 71.125 -57.125 71.125 -55.52734375 72.2890625 C-53.67614755 74.71263413 -53.33830432 76.82895669 -52.75 79.8125 C-50.76549748 88.32632428 -47.29873845 94.08811981 -40.125 99.125 C-35.53440404 101.05008863 -30.46304499 100.61390105 -25.875 98.9375 C-22.77381474 96.89353698 -21.55438896 95.5396514 -20.125 92.125 C-19.4997313 88.99865648 -19.61817484 87.08101139 -21.12109375 84.24609375 C-27.61498319 74.84559091 -37.23361526 69.337844 -46.93237305 63.77490234 C-52.38149543 60.63003238 -57.32116141 57.19759889 -62.125 53.125 C-62.74503906 52.65964844 -63.36507813 52.19429688 -64.00390625 51.71484375 C-72.46114074 45.15729044 -77.00938526 35.27862872 -78.44140625 24.8125 C-78.86288936 16.98107198 -75.80193038 10.86785556 -70.875 4.9375 C-51.91856037 -15.21871429 -22.14612106 -15.00125469 0 0 Z " fill="#FCF2E0" transform="translate(343.125,369.875)"/>
<path d="M0 0 C2.75 1.5625 2.75 1.5625 3.75 2.5625 C3.87337174 4.40281989 3.92791308 6.24779411 3.95532227 8.09204102 C3.97526749 9.27318985 3.99521271 10.45433868 4.01576233 11.67127991 C4.03247482 12.9566716 4.04918732 14.24206329 4.06640625 15.56640625 C4.08718735 16.87455795 4.10796844 18.18270966 4.12937927 19.53050232 C4.184663 23.01405447 4.23404431 26.4976666 4.28222656 29.98132324 C4.33239574 33.5338273 4.38810567 37.0862439 4.44335938 40.63867188 C4.55101791 47.61320546 4.65244567 54.58781798 4.75 61.5625 C6.80093261 60.15572449 8.85012934 58.74652555 10.8984375 57.3359375 C11.75779907 56.74703735 11.75779907 56.74703735 12.63452148 56.14624023 C20.02084544 51.05276525 26.92152891 45.60330521 33.02319336 39.01049805 C39.76111764 31.81430652 39.76111764 31.81430652 43.8125 31.375 C50.75117617 32.46006047 56.74580953 38.93936976 60.875 44.25 C62.81121492 47.67064635 63.17193129 48.78245802 62.75 52.5625 C56.82410941 64.17724555 42.51127216 72.04966595 31.75 78.5625 C32.27687985 82.8723772 34.98489566 85.74680576 37.625 89 C38.11532715 89.61254639 38.6056543 90.22509277 39.11083984 90.85620117 C40.64753922 92.76640728 42.19632961 94.66607932 43.75 96.5625 C44.22888672 97.14870117 44.70777344 97.73490234 45.20117188 98.33886719 C46.58450457 100.02438421 47.97636821 101.7021608 49.375 103.375 C49.82439941 103.91261963 50.27379883 104.45023926 50.73681641 105.00415039 C54.2712364 109.1583411 58.11676483 112.83350315 62.265625 116.3671875 C63.75 118.5625 63.75 118.5625 63.81640625 121.9296875 C62.56147671 126.20472219 60.50833794 128.72974419 57.4375 131.8125 C56.70756836 132.5859375 56.70756836 132.5859375 55.96289062 133.375 C49.48516246 140.14043346 49.48516246 140.14043346 45.4375 141.125 C31.453414 138.19809828 18.07292964 111.52599834 10.75 100.5625 C9.41515151 98.41006802 8.09589112 96.25151767 6.80615234 94.07177734 C5.81093543 92.39446071 5.81093543 92.39446071 3.75 91.5625 C3.76571045 92.74803467 3.7814209 93.93356934 3.79760742 95.1550293 C3.85199565 99.562512 3.88638246 103.96996515 3.91479492 108.37768555 C3.92986128 110.28366081 3.95031824 112.18960152 3.97631836 114.09545898 C4.01279642 116.83846576 4.02974792 119.58101328 4.04296875 122.32421875 C4.05845261 123.17336349 4.07393646 124.02250824 4.08988953 124.89738464 C4.09122878 129.62837627 3.80875645 132.70793132 0.75 136.5625 C-2.71177909 139.1470862 -6.4211507 138.89554542 -10.625 138.9375 C-11.91148437 138.96585938 -13.19796875 138.99421875 -14.5234375 139.0234375 C-18.85156752 138.48809228 -20.93209673 137.3518877 -24.25 134.5625 C-26.51051022 131.14271452 -26.50317866 128.19671204 -26.50878906 124.15649414 C-26.51499268 122.84454575 -26.52119629 121.53259735 -26.52758789 120.18089294 C-26.52396957 118.73647974 -26.5199703 117.29206745 -26.515625 115.84765625 C-26.51782641 114.33744704 -26.52068896 112.82723866 -26.52416992 111.31703186 C-26.52999525 107.25966636 -26.52135372 103.20246213 -26.50794983 99.14511871 C-26.50001683 96.63033553 -26.4949823 94.11556071 -26.49060059 91.60076904 C-26.44883092 70.76426348 -26.29091484 49.92919908 -25.61120605 29.10250854 C-25.53731059 26.83326476 -25.46931865 24.56382073 -25.40734863 22.29421997 C-25.31829564 19.17675742 -25.20305836 16.06151705 -25.078125 12.9453125 C-25.05500244 12.04152359 -25.03187988 11.13773468 -25.00805664 10.20655823 C-24.71861481 4.19693425 -24.71861481 4.19693425 -22.38574219 1.03857422 C-16.44787886 -3.06525771 -6.51392133 -2.78198723 0 0 Z " fill="#FCF1E0" transform="translate(625.25,540.4375)"/>
<path d="M0 0 C2.75 1.5625 2.75 1.5625 3.75 2.5625 C3.87337174 4.40281989 3.92791308 6.24779411 3.95532227 8.09204102 C3.97526749 9.27318985 3.99521271 10.45433868 4.01576233 11.67127991 C4.03247482 12.9566716 4.04918732 14.24206329 4.06640625 15.56640625 C4.08718735 16.87455795 4.10796844 18.18270966 4.12937927 19.53050232 C4.184663 23.01405447 4.23404431 26.4976666 4.28222656 29.98132324 C4.33239574 33.5338273 4.38810567 37.0862439 4.44335938 40.63867188 C4.55101791 47.61320546 4.65244567 54.58781798 4.75 61.5625 C6.80093261 60.15572449 8.85012934 58.74652555 10.8984375 57.3359375 C11.75779907 56.74703735 11.75779907 56.74703735 12.63452148 56.14624023 C20.02084544 51.05276525 26.92152891 45.60330521 33.02319336 39.01049805 C39.76111764 31.81430652 39.76111764 31.81430652 43.8125 31.375 C50.75117617 32.46006047 56.74580953 38.93936976 60.875 44.25 C62.81121492 47.67064635 63.17193129 48.78245802 62.75 52.5625 C56.82410941 64.17724555 42.51127216 72.04966595 31.75 78.5625 C32.27687985 82.8723772 34.98489566 85.74680576 37.625 89 C38.11532715 89.61254639 38.6056543 90.22509277 39.11083984 90.85620117 C40.64753922 92.76640728 42.19632961 94.66607932 43.75 96.5625 C44.22888672 97.14870117 44.70777344 97.73490234 45.20117188 98.33886719 C46.58450457 100.02438421 47.97636821 101.7021608 49.375 103.375 C49.82439941 103.91261963 50.27379883 104.45023926 50.73681641 105.00415039 C54.2712364 109.1583411 58.11676483 112.83350315 62.265625 116.3671875 C63.75 118.5625 63.75 118.5625 63.81640625 121.9296875 C62.56147671 126.20472219 60.50833794 128.72974419 57.4375 131.8125 C56.70756836 132.5859375 56.70756836 132.5859375 55.96289062 133.375 C49.48516246 140.14043346 49.48516246 140.14043346 45.4375 141.125 C31.453414 138.19809828 18.07292964 111.52599834 10.75 100.5625 C9.41515151 98.41006802 8.09589112 96.25151767 6.80615234 94.07177734 C5.81093543 92.39446071 5.81093543 92.39446071 3.75 91.5625 C3.76571045 92.74803467 3.7814209 93.93356934 3.79760742 95.1550293 C3.85199565 99.562512 3.88638246 103.96996515 3.91479492 108.37768555 C3.92986128 110.28366081 3.95031824 112.18960152 3.97631836 114.09545898 C4.01279642 116.83846576 4.02974792 119.58101328 4.04296875 122.32421875 C4.05845261 123.17336349 4.07393646 124.02250824 4.08988953 124.89738464 C4.09122878 129.62837627 3.80875645 132.70793132 0.75 136.5625 C-2.71177909 139.1470862 -6.4211507 138.89554542 -10.625 138.9375 C-11.91148437 138.96585938 -13.19796875 138.99421875 -14.5234375 139.0234375 C-18.85156752 138.48809228 -20.93209673 137.3518877 -24.25 134.5625 C-26.19506118 131.48067622 -26.49873154 129.1106337 -26.49291992 125.49829102 C-26.49595123 124.48099411 -26.49898254 123.4636972 -26.50210571 122.41557312 C-26.49139542 120.75773552 -26.49139542 120.75773552 -26.48046875 119.06640625 C-26.4804184 117.90619461 -26.48036804 116.74598297 -26.48031616 115.5506134 C-26.47668396 111.74196981 -26.45770763 107.93358914 -26.4375 104.125 C-26.42996322 101.491049 -26.42272267 98.85709714 -26.41577148 96.22314453 C-26.33954762 74.86379661 -26.00532678 53.5137956 -25.37792969 32.16357422 C-25.25674141 27.97518118 -25.17590322 23.78713319 -25.1015625 19.59765625 C-25.04803207 17.39840903 -24.99346374 15.19918664 -24.9375 13 C-24.92726807 12.0601123 -24.91703613 11.12022461 -24.90649414 10.15185547 C-24.71276563 4.1928355 -24.71276563 4.1928355 -22.39453125 1.03515625 C-16.43902337 -3.05450945 -6.52443473 -2.78647733 0 0 Z " fill="#FCF2E0" transform="translate(667.25,361.4375)"/>
<path d="M0 0 C3.96 0 7.92 0 12 0 C12.02578125 1.22074219 12.0515625 2.44148438 12.078125 3.69921875 C12.52363981 18.3281967 14.13475378 32.13475378 25 43 C24.26998779 42.97905273 23.53997559 42.95810547 22.7878418 42.93652344 C19.42120617 42.85243073 16.05479255 42.80104721 12.6875 42.75 C11.53958984 42.71648438 10.39167969 42.68296875 9.20898438 42.6484375 C-0.95619826 42.53325129 -9.90108532 44.15603106 -17.5 51.375 C-18.2940625 52.10460937 -19.088125 52.83421875 -19.90625 53.5859375 C-25.58563714 60.13418611 -26.11295494 67.06592752 -26.5625 75.3125 C-26.62727539 76.42334961 -26.62727539 76.42334961 -26.69335938 77.55664062 C-26.79870432 79.37091464 -26.89978316 81.1854355 -27 83 C-27.81082031 82.7834375 -28.62164063 82.566875 -29.45703125 82.34375 C-40.85604391 79.47740921 -51.00896555 79.89741776 -62.6171875 80.87890625 C-65.71945269 80.98995731 -67.9896058 80.60287097 -71 80 C-74.5603583 79.7637643 -78.12002192 79.76911576 -81.6875 79.75 C-82.63044922 79.729375 -83.57339844 79.70875 -84.54492188 79.6875 C-92.64225814 79.64297856 -100.95302739 80.61563869 -107.375 86 C-107.98085938 86.495 -108.58671875 86.99 -109.2109375 87.5 C-109.80132812 87.995 -110.39171875 88.49 -111 89 C-112.32828295 90.00669866 -113.66031994 91.00851872 -115 92 C-115.66644531 91.61328125 -116.33289063 91.2265625 -117.01953125 90.828125 C-134.49802526 80.95216475 -152.37010995 76.91751159 -172.01367188 82.00537109 C-179.80171144 84.28238266 -186.91217968 88.11677929 -194 92 C-194.54527344 91.10539063 -195.09054687 90.21078125 -195.65234375 89.2890625 C-200.47080082 81.51088113 -205.51124243 74.51156515 -212 68 C-212.66128906 67.31550781 -213.32257813 66.63101563 -214.00390625 65.92578125 C-225.84712456 54.48707514 -241.93309041 47.64877468 -258 45 C-258 44.01 -258 43.02 -258 42 C-255.7967521 40.38110473 -253.64957989 38.96101234 -251.3125 37.5625 C-246.98569279 34.92007294 -242.89670646 32.27084921 -239 29 C-238.0158875 30.26700723 -237.03788503 31.5387619 -236.0625 32.8125 C-235.51722656 33.52019531 -234.97195313 34.22789062 -234.41015625 34.95703125 C-233 37 -233 37 -232 40 C-230.13982332 41.05537095 -230.13982332 41.05537095 -228 42 C-226.73102861 42.9330672 -225.48142515 43.892913 -224.25 44.875 C-210.35869309 55.38941462 -194.27423544 56.72579442 -177.39453125 54.53125 C-166.79189622 52.2269257 -158.76933293 46.33529199 -151 39 C-147.62969084 40.29673243 -144.4466123 41.76084551 -141.25 43.4375 C-126.67287628 50.7911383 -109.28043503 52.89283314 -93.5625 47.875 C-87.55936297 45.84859631 -81.908564 43.17751712 -76.35546875 40.13671875 C-74 39 -74 39 -71 39 C-71 39.66 -71 40.32 -71 41 C-70.42636719 41.2784375 -69.85273437 41.556875 -69.26171875 41.84375 C-67.04804522 42.97543802 -64.94615704 44.2252468 -62.8125 45.5 C-50.69230151 52.15923385 -36.27402378 51.16485794 -23.1640625 47.96875 C-13.61070429 45.04377119 -8.63655003 40.4222406 -3.78125 31.84765625 C0.66148569 22.05777083 -0.17734861 10.54337465 0 0 Z " fill="#A4D6E7" transform="translate(604,473)"/>
<path d="M0 0 C1.11568359 0.52787109 1.11568359 0.52787109 2.25390625 1.06640625 C15.18483081 7.69596656 23.02060395 18.48067201 28 32 C29.41241927 36.82565796 29.22348346 41.63326205 29.25 46.625 C29.270625 47.57246094 29.29125 48.51992188 29.3125 49.49609375 C29.38896552 63.47016712 23.81721109 75.77356422 14.26171875 85.9296875 C3.52964094 95.75352384 -7.75325302 98.82887931 -21.9375 98.34765625 C-27.18665031 98.0105216 -31.4395092 96.61295024 -36 94 C-37.14855469 93.34644531 -37.14855469 93.34644531 -38.3203125 92.6796875 C-50.38761523 85.1938692 -58.97112781 73.84870374 -62.55859375 59.97265625 C-64.80486709 44.84509864 -63.28528894 30.53806221 -54.6875 17.5625 C-53.48980663 16.01675898 -52.26120634 14.49437053 -51 13 C-50.42765625 12.29359375 -49.8553125 11.5871875 -49.265625 10.859375 C-37.54872618 -2.2595459 -16.15054365 -7.96333736 0 0 Z " fill="#FCF2E0" transform="translate(467,580)"/>
<path d="M0 0 C1.11568359 0.52787109 1.11568359 0.52787109 2.25390625 1.06640625 C15.18483081 7.69596656 23.02060395 18.48067201 28 32 C29.41241927 36.82565796 29.22348346 41.63326205 29.25 46.625 C29.270625 47.57246094 29.29125 48.51992188 29.3125 49.49609375 C29.38896552 63.47016712 23.81721109 75.77356422 14.26171875 85.9296875 C3.52964094 95.75352384 -7.75325302 98.82887931 -21.9375 98.34765625 C-27.18665031 98.0105216 -31.4395092 96.61295024 -36 94 C-37.14855469 93.34644531 -37.14855469 93.34644531 -38.3203125 92.6796875 C-50.38761523 85.1938692 -58.97112781 73.84870374 -62.55859375 59.97265625 C-64.80486709 44.84509864 -63.28528894 30.53806221 -54.6875 17.5625 C-53.48980663 16.01675898 -52.26120634 14.49437053 -51 13 C-50.42765625 12.29359375 -49.8553125 11.5871875 -49.265625 10.859375 C-37.54872618 -2.2595459 -16.15054365 -7.96333736 0 0 Z " fill="#FCF2E0" transform="translate(509,401)"/>
<path d="M0 0 C1.03125 0.804375 2.0625 1.60875 3.125 2.4375 C10.64286003 8.06605489 18.69066473 12.95603503 26.671875 17.89453125 C40.97108342 26.76945653 53.78244594 36.41407725 66 48 C66.65613281 48.58007812 67.31226563 49.16015625 67.98828125 49.7578125 C73.9268766 55.19128595 77.98162351 62.1021654 82 69 C82.58265625 69.99773437 83.1653125 70.99546875 83.765625 72.0234375 C87.79112355 79.76947258 89.26907252 87.44200942 90.44458008 96.046875 C91.79667828 105.16678147 95.17592281 111.72922637 102 118 C102.99 119.485 102.99 119.485 104 121 C85.4574936 126.82705027 67.86333358 128.42190271 49.63720703 119.89453125 C45.42223834 117.61007552 41.49245951 114.99160269 37.62304688 112.16650391 C36.22193655 111.15950855 34.76337068 110.23336131 33.296875 109.32421875 C17.96458486 99.23306861 13.84928072 75.2121465 10.25390625 58.5 C8.41617442 49.40760986 7.13015301 40.21245241 5.875 31.02392578 C4.79027359 23.25113131 3.33299238 15.71735469 1.29844666 8.1321106 C0.54668572 5.31778911 0 2.93030199 0 0 Z " fill="#D4982B" transform="translate(176,560)"/>
<path d="M0 0 C1.40252917 4.20758752 -0.01286722 7.47605581 -1.125 11.625 C-3.36491414 20.40874706 -4.87150241 29.213447 -6.13586426 38.177948 C-13.99763214 93.81244358 -13.99763214 93.81244358 -30.04003906 107.77563477 C-32.26970486 109.38311999 -34.53927754 110.86388415 -36.875 112.3125 C-37.63941406 112.81072266 -38.40382813 113.30894531 -39.19140625 113.82226562 C-46.75070965 118.67998436 -53.86297527 122.38083664 -62.6875 124.25 C-63.47060547 124.41910889 -64.25371094 124.58821777 -65.06054688 124.76245117 C-75.11312275 126.79783065 -84.87460455 126.2799597 -95 125 C-92.40919633 116.70942825 -86.14366069 110.78681839 -79.5 105.5625 C-78.80583984 105.00828369 -78.11167969 104.45406738 -77.39648438 103.88305664 C-54.65269239 86 -54.65269239 86 -47 86 C-47.33 85.01 -47.66 84.02 -48 83 C-61.0104964 86.51635038 -71.55660337 95.60661118 -82.08984375 103.58300781 C-83.69133533 104.77102636 -85.34086515 105.8939101 -87 107 C-89.01597522 84.23786466 -89.01597522 84.23786466 -84 75 C-83.3706492 73.73720062 -82.74178258 72.47415988 -82.11328125 71.2109375 C-77.26986156 61.8058483 -71.50897283 54.43494071 -64 47 C-63.19320801 46.16359985 -63.19320801 46.16359985 -62.37011719 45.31030273 C-58.3499987 41.17550127 -54.14462614 37.59919323 -49.5 34.1875 C-48.80712891 33.67396973 -48.11425781 33.16043945 -47.40039062 32.63134766 C-37.12678279 25.08010593 -26.43825267 18.24816803 -15.59155273 11.55834961 C-10.12268765 8.152129 -4.57675661 4.57675661 0 0 Z " fill="#D4982A" transform="translate(800,560)"/>
<path d="M0 0 C1.20269531 -0.02578125 2.40539062 -0.0515625 3.64453125 -0.078125 C7.51269675 0.28011745 9.89606566 1.22298812 13.1875 3.25 C14.37489 5.62477999 14.31665064 7.08215925 14.3203125 9.73046875 C14.32232666 10.64070801 14.32434082 11.55094727 14.32641602 12.48876953 C14.32182373 13.46185059 14.31723145 14.43493164 14.3125 15.4375 C14.30984131 16.4260498 14.30718262 17.41459961 14.30444336 18.43310547 C14.17434709 38.72482926 14.17434709 38.72482926 12.1875 46.25 C13.29992065 46.2185791 13.29992065 46.2185791 14.43481445 46.18652344 C17.7897388 46.10345863 21.14444707 46.05136986 24.5 46 C25.66724609 45.96648437 26.83449219 45.93296875 28.03710938 45.8984375 C29.15537109 45.88554687 30.27363281 45.87265625 31.42578125 45.859375 C32.45743408 45.83842773 33.48908691 45.81748047 34.55200195 45.79589844 C37.1875 46.25 37.1875 46.25 39.02050781 47.97387695 C41.1050171 52.03954225 40.65860844 56.20535561 40.625 60.6875 C40.64498047 61.62916016 40.66496094 62.57082031 40.68554688 63.54101562 C40.68257353 67.75423937 40.52294859 70.58653887 38.6015625 74.38671875 C35.30357477 76.93225297 33.25517271 76.78730255 29.125 76.625 C27.89652344 76.59148437 26.66804688 76.55796875 25.40234375 76.5234375 C20.31991673 76.23806396 15.25361466 75.73957518 10.1875 75.25 C10.32708564 79.77104878 10.47527757 84.29177646 10.625 88.8125 C10.66431641 90.08931641 10.70363281 91.36613281 10.74414062 92.68164062 C10.78603516 93.92236328 10.82792969 95.16308594 10.87109375 96.44140625 C10.92608032 98.14598999 10.92608032 98.14598999 10.98217773 99.88500977 C11.21075048 107.23609578 11.21075048 107.23609578 14.25 113.6875 C17.38917327 116.44914913 17.38917327 116.44914913 21.1875 116.75 C23.67729424 116.56419446 25.34525841 116.18689664 27.6875 115.25 C31.39392412 113.76743035 34.19855689 113.92831104 38.1875 114.25 C40.36226401 115.79338091 41.00582637 116.88665273 42.1875 119.25 C42.80244422 125.61230753 42.50632117 131.66040644 39.1875 137.25 C33.2218113 143.35127253 27.8261222 145.41109294 19.5 145.75 C11.08116544 145.56171935 3.60145775 143.04774838 -3.1875 138 C-16.74963866 123.79204522 -19.165909 105.88901496 -18.9375 87.125 C-18.92744507 85.67708956 -18.91832368 84.22917232 -18.91015625 82.78125 C-18.88835344 79.27068963 -18.85396381 75.76038972 -18.8125 72.25 C-19.76511719 72.12367188 -20.71773438 71.99734375 -21.69921875 71.8671875 C-24.8125 71.25 -24.8125 71.25 -26.625 69.375 C-29.13127748 64.89008241 -28.96235377 60.67896512 -28.9375 55.6875 C-28.94136719 54.90697266 -28.94523437 54.12644531 -28.94921875 53.32226562 C-28.93917749 47.50335498 -28.93917749 47.50335498 -27.8125 45.25 C-23.5225 45.25 -19.2325 45.25 -14.8125 45.25 C-14.82410156 43.87070312 -14.83570313 42.49140625 -14.84765625 41.0703125 C-14.90428447 31.75496987 -14.91189351 22.43502318 -14.5625 13.125 C-14.54840088 12.38652832 -14.53430176 11.64805664 -14.51977539 10.88720703 C-14.35985512 7.4854118 -14.04629233 5.55550174 -11.953125 2.8203125 C-8.0963142 -0.00895382 -4.65576813 0.05949863 0 0 Z " fill="#FBF1DF" transform="translate(394.8125,359.75)"/>
<path d="M0 0 C7.85955881 9.70484653 12.57243266 25.60054728 13 38 C12.68417969 39.18464844 12.36835937 40.36929688 12.04296875 41.58984375 C10.76625475 46.43956822 10.5901818 51.19368801 10.4375 56.1875 C10.07340569 66.71524838 10.07340569 66.71524838 9 71 C4.20777129 66.93386655 1.562282 62.02233092 -1.44921875 56.546875 C-2.74930966 53.90394207 -2.74930966 53.90394207 -5 53 C-4.94779297 54.670625 -4.94779297 54.670625 -4.89453125 56.375 C-4.71336125 64.83209024 -5.02124614 72.65248703 -6.79003906 80.94604492 C-7.8694197 86.05035254 -8.53694885 91.12295274 -9.0625 96.3125 C-9.7389678 102.94556396 -10.64687025 109.46467119 -12 116 C-13.7640752 113.35388721 -14.73540396 111.27554496 -15.8046875 108.32421875 C-16.14113281 107.41349609 -16.47757813 106.50277344 -16.82421875 105.56445312 C-17.52004459 103.65933888 -18.21279716 101.7530991 -18.90234375 99.84570312 C-20.78498105 94.76687741 -22.58459352 90.2381461 -26 86 C-27.485 85.505 -27.485 85.505 -29 85 C-28.84015625 85.76828125 -28.6803125 86.5365625 -28.515625 87.328125 C-27.83849117 92.15013866 -27.77629032 96.8862907 -27.75 101.75 C-27.729375 102.6884375 -27.70875 103.626875 -27.6875 104.59375 C-27.62906048 115.17130327 -30.77638618 123.38944544 -35.9375 132.5 C-36.36740234 133.29664063 -36.79730469 134.09328125 -37.24023438 134.9140625 C-37.66498047 135.67460938 -38.08972656 136.43515625 -38.52734375 137.21875 C-38.90624756 137.89873047 -39.28515137 138.57871094 -39.67553711 139.27929688 C-41.23293368 141.30262056 -42.74504198 141.87583923 -45 143 C-45.33 143.99 -45.66 144.98 -46 146 C-47.78299349 143.37795075 -47.99870694 141.96638043 -47.875 138.75 C-47.12347474 135.52917746 -46.58196949 134.21354867 -44.9375 131.5625 C-41.37596697 124.88299483 -41.92356304 115.56140162 -43.625 108.3515625 C-46.07184068 102.30000117 -51.10310239 92.9484488 -57 90 C-57 89.34 -57 88.68 -57 88 C-57.57363281 87.73058594 -58.14726563 87.46117187 -58.73828125 87.18359375 C-61.05109876 85.9732592 -63.06633291 84.58093108 -65.1875 83.0625 C-73.77087751 77.35420504 -81.71965114 76.01369347 -92 77 C-95.18223928 77.76373743 -97.95686083 78.76211288 -101 80 C-101.07476563 78.81664062 -101.14953125 77.63328125 -101.2265625 76.4140625 C-101.35803609 74.8175975 -101.49092523 73.22124865 -101.625 71.625 C-101.67011719 70.85027344 -101.71523438 70.07554687 -101.76171875 69.27734375 C-102.38543809 62.416431 -105.14893638 57.63305444 -109 52 C-108.00371582 51.99383667 -108.00371582 51.99383667 -106.98730469 51.98754883 C-87.46438387 52.45901082 -87.46438387 52.45901082 -70.703125 43.83203125 C-70.14109375 43.22746094 -69.5790625 42.62289062 -69 42 C-65.15909592 43.24264544 -62.69135885 45.07830538 -59.65625 47.6953125 C-53.32148017 52.68543779 -46.56618251 54.4246925 -38.59375 53.81640625 C-24.82199732 51.7027037 -15.20930856 42.91152771 -7.1875 32.0625 C-0.10618647 21.29231616 0.52537602 12.57983685 0 0 Z " fill="#A3D5E6" transform="translate(754,472)"/>
<path d="M0 0 C0.33 0 0.66 0 1 0 C1.061875 1.19625 1.12375 2.3925 1.1875 3.625 C2.91181817 18.83252833 10.94422359 32.67432203 22 43 C25.51481458 45.64124955 29.15805432 47.86862188 33 50 C33.81339844 50.46148438 34.62679687 50.92296875 35.46484375 51.3984375 C42.01075024 54.89948959 48.87106762 56.99987634 56 59 C55.2575 59.845625 54.515 60.69125 53.75 61.5625 C48.69209468 67.64060781 45.84716437 73.27042001 45.92163086 81.25244141 C45.92750717 82.30098297 45.93338348 83.34952454 45.93943787 84.42984009 C45.94782181 85.55900848 45.95620575 86.68817688 45.96484375 87.8515625 C45.96112949 90.25391052 45.95519932 92.65625595 45.94726562 95.05859375 C45.93672847 98.83775762 45.93739868 102.61503729 45.97583008 106.39404297 C46.00909629 110.0475821 45.9912896 113.69802733 45.96484375 117.3515625 C45.99867409 119.02709702 45.99867409 119.02709702 46.03318787 120.73648071 C45.88541205 130.48049175 41.67359227 135.32640773 35 142 C35 141.34 35 140.68 35 140 C34.01 139.67 33.02 139.34 32 139 C29.16894997 133.12819253 28.71734975 127.78922482 28.6875 121.375 C28.68210205 120.65892578 28.6767041 119.94285156 28.67114258 119.20507812 C28.73390447 114.46791952 29.51774885 110.4999019 31 106 C27.24864795 108.04204033 24.6950526 110.18654833 21.9375 113.4375 C19.39240341 116.41601898 16.80216682 119.26024224 14 122 C13.01287122 120.75627811 12.03560095 119.50472782 11.0625 118.25 C10.24458984 117.20585938 10.24458984 117.20585938 9.41015625 116.140625 C5.90030162 110.81264622 6.45601962 104.13920716 7 98 C8.07862003 93.56776658 9.45057197 89.28859545 11 85 C5.27648851 90.20319226 1.26770955 96.59843568 -3 103 C-3.66 103 -4.32 103 -5 103 C-9.56123433 92.26518804 -9.56123433 92.26518804 -10 87 C-10.09796875 86.33226562 -10.1959375 85.66453125 -10.296875 84.9765625 C-10.96217058 77.2744867 -7.85550067 71.31922619 -4.62890625 64.5390625 C-3.40934291 61.88936374 -2.62395236 59.78731878 -2 57 C-6.13903963 58.37967988 -7.33418005 61.25640949 -9.5 64.8125 C-10.2798934 66.06985289 -11.06111206 67.32638486 -11.84375 68.58203125 C-12.21113281 69.17322754 -12.57851562 69.76442383 -12.95703125 70.37353516 C-14.20913868 72.32614276 -15.56700625 74.17660731 -17 76 C-19.86111354 73.13888646 -18.34952578 65.13585361 -18.375 61.125 C-18.37956207 60.44549286 -18.38412415 59.76598572 -18.38882446 59.06588745 C-18.42355703 44.65315247 -15.8481116 32.15396364 -10 19 C-9.34 19 -8.68 19 -8 19 C-7.773125 17.700625 -7.54625 16.40125 -7.3125 15.0625 C-6.1570231 9.77912376 -3.90450583 3.90450583 0 0 Z " fill="#A4D6E6" transform="translate(238,463)"/>
<path d="M0 0 C0.95455078 -0.02835938 1.90910156 -0.05671875 2.89257812 -0.0859375 C9.92603271 -0.10562527 9.92603271 -0.10562527 13.22265625 3.03125 C13.66480469 3.8459375 14.10695313 4.660625 14.5625 5.5 C15.09359375 5.22285156 15.6246875 4.94570313 16.171875 4.66015625 C16.87828125 4.29792969 17.5846875 3.93570313 18.3125 3.5625 C19.00859375 3.20285156 19.7046875 2.84320312 20.421875 2.47265625 C27.7691931 -0.86581493 37.81311472 -0.77104958 45.5546875 1.30078125 C53.2408386 4.78469086 59.54084413 10.99686946 62.5625 18.9375 C64.64955085 26.73006 64.58612241 35.33954038 60.5625 42.5 C56.57934945 46.92295676 52.87166808 50.26100453 46.75 50.703125 C45.698125 50.71859375 44.64625 50.7340625 43.5625 50.75 C41.9846875 50.78867187 41.9846875 50.78867187 40.375 50.828125 C37.5625 50.5 37.5625 50.5 35.75 49.171875 C33.54819326 46.07196288 33.45001784 43.35138204 33.5 39.68359375 C33.50773438 38.75482422 33.51546875 37.82605469 33.5234375 36.86914062 C33.53632812 35.90169922 33.54921875 34.93425781 33.5625 33.9375 C33.58795339 32.019587 33.60900543 30.10160896 33.625 28.18359375 C33.63660156 27.33337646 33.64820313 26.48315918 33.66015625 25.60717773 C33.70247525 23.44217825 33.70247525 23.44217825 32.5625 21.5 C29.27323505 20.99803706 29.27323505 20.99803706 25.5625 21.5 C19.46569939 27.17144243 15.83580821 34.87918883 15.43119812 43.20033264 C15.42597893 44.6578318 15.42597893 44.6578318 15.4206543 46.14477539 C15.41010262 47.80658592 15.41010262 47.80658592 15.39933777 49.50196838 C15.39517349 50.68854538 15.39100922 51.87512238 15.38671875 53.09765625 C15.36353362 55.61524286 15.33941683 58.13282103 15.31445312 60.65039062 C15.27925008 64.61602545 15.24993649 68.58134657 15.23657227 72.54711914 C15.22114417 76.37684807 15.18098221 80.20566652 15.13671875 84.03515625 C15.13862717 85.22375748 15.14053558 86.4123587 15.14250183 87.63697815 C15.12601089 88.74169968 15.10951996 89.8464212 15.0925293 90.98461914 C15.08372993 92.44092491 15.08372993 92.44092491 15.07475281 93.926651 C14.41891893 97.22129271 13.12304231 98.3973531 10.5625 100.5 C7.33880173 102.11184913 3.85061289 101.72621437 0.3125 101.75 C-0.43902344 101.770625 -1.19054687 101.79125 -1.96484375 101.8125 C-6.86066864 101.84667679 -10.19657532 101.21313815 -14.4375 98.5 C-15.63770318 96.09959365 -15.56434972 94.60809971 -15.56689453 91.92797852 C-15.57000137 90.97330185 -15.57310822 90.01862518 -15.5763092 89.03501892 C-15.57433029 87.99350174 -15.57235138 86.95198456 -15.5703125 85.87890625 C-15.57167709 84.79964371 -15.57304169 83.72038116 -15.57444763 82.6084137 C-15.57647875 79.09307818 -15.57015458 75.57782694 -15.5625 72.0625 C-15.56128143 70.87517273 -15.56006287 69.68784546 -15.55880737 68.46453857 C-15.5391689 52.28270907 -15.45770988 36.12322676 -14.56982422 19.96191406 C-14.44329516 17.60781991 -14.34538387 15.25411551 -14.25390625 12.8984375 C-14.19074219 11.61195313 -14.12757813 10.32546875 -14.0625 9 C-14.01351563 7.9790625 -13.96453125 6.958125 -13.9140625 5.90625 C-12.49398042 -1.2640005 -5.88148859 -0.01582109 0 0 Z " fill="#FCF1E0" transform="translate(522.4375,576.5)"/>
<path d="M0 0 C0.92425781 0.00064453 1.84851563 0.00128906 2.80078125 0.00195312 C4.24517578 0.02612305 4.24517578 0.02612305 5.71875 0.05078125 C6.68167969 0.04755859 7.64460937 0.04433594 8.63671875 0.04101562 C15.81798115 0.09610202 15.81798115 0.09610202 19.21875 2.36328125 C19.54875 3.35328125 19.87875 4.34328125 20.21875 5.36328125 C20.91097656 5.00234375 21.60320313 4.64140625 22.31640625 4.26953125 C31.45893569 -0.06684635 40.24688075 -1.36361127 50.18359375 1.09765625 C58.31994992 4.08302603 63.17898887 8.59971435 67.23828125 16.1796875 C70.28079133 22.95563624 70.42581514 31.17803672 68.3828125 38.26171875 C66.16131483 43.2265424 63.5198537 46.9779347 58.67578125 49.58984375 C53.6776476 51.16318312 48.36531738 51.20813499 43.21875 50.36328125 C41.57006836 49.19189453 41.57006836 49.19189453 40.21875 47.36328125 C39.80224609 44.74365234 39.80224609 44.74365234 39.7421875 41.63671875 C39.71125 40.52296875 39.6803125 39.40921875 39.6484375 38.26171875 C39.63039063 37.09898437 39.61234375 35.93625 39.59375 34.73828125 C39.54298398 32.43350404 39.48850523 30.12880454 39.4296875 27.82421875 C39.41212402 26.80118652 39.39456055 25.7781543 39.37646484 24.72412109 C39.48188683 22.40695098 39.48188683 22.40695098 38.21875 21.36328125 C34.44384651 20.84852168 32.76832497 20.96115322 29.65625 23.23828125 C24.00867688 30.47875961 21.09724792 37.71603516 21.09277344 46.90039062 C21.08896667 47.98501587 21.08515991 49.06964111 21.08123779 50.18713379 C21.08021057 51.34869995 21.07918335 52.51026611 21.078125 53.70703125 C21.05980619 56.17448847 21.04023675 58.64193666 21.01953125 61.109375 C20.99050255 64.99380852 20.9687482 68.87765775 20.96826172 72.76220703 C20.9649342 76.51517407 20.9304353 80.26679704 20.890625 84.01953125 C20.8976947 85.18109741 20.9047644 86.34266357 20.91204834 87.53942871 C20.79090091 95.54407781 20.79090091 95.54407781 17.95825195 99.59985352 C15.1946622 101.37878666 13.94417743 101.98024698 10.71484375 101.921875 C9.89177734 101.91478516 9.06871094 101.90769531 8.22070312 101.90039062 C6.95129883 101.85108398 6.95129883 101.85108398 5.65625 101.80078125 C4.80611328 101.79498047 3.95597656 101.78917969 3.08007812 101.78320312 C-4.3483524 101.63754762 -4.3483524 101.63754762 -7.78125 99.36328125 C-10.61775706 95.70984668 -10.06827705 91.19157138 -10.046875 86.78125 C-10.04964951 85.91469284 -10.05242401 85.04813568 -10.05528259 84.15531921 C-10.05947998 81.28698504 -10.04672565 78.41907301 -10.03125 75.55078125 C-10.02848053 74.57006653 -10.02571106 73.58935181 -10.02285767 72.57891846 C-9.9733111 57.50304302 -9.65971011 42.43707149 -9.08752441 27.37197876 C-9.00843077 25.28520308 -8.93363232 23.19826012 -8.86315918 21.11117554 C-8.76144901 18.19173756 -8.63994268 15.27384785 -8.51171875 12.35546875 C-8.48343491 11.48564865 -8.45515106 10.61582855 -8.42601013 9.71965027 C-8.13020561 3.79461414 -8.13020561 3.79461414 -6.38728333 1.64024353 C-4.20079707 -0.09823875 -2.7705868 -0.00977419 0 0 Z " fill="#FCF2E0" transform="translate(558.78125,397.63671875)"/>
<path d="M0 0 C4.29 0 8.58 0 13 0 C13.03867187 1.83111328 13.03867187 1.83111328 13.078125 3.69921875 C13.51848725 18.15753389 15.737304 29.79875224 24 42 C15.33124459 44.03895283 6.89884984 45.52735047 -2 46 C-2 46.66 -2 47.32 -2 48 C-5.04213267 49.52106634 -8.28047572 49.37429338 -11.625 49.5625 C-12.33140625 49.60568359 -13.0378125 49.64886719 -13.765625 49.69335938 C-15.51018537 49.79944751 -17.25506697 49.90022889 -19 50 C-19 50.66 -19 51.32 -19 52 C-18.01 51.67 -17.02 51.34 -16 51 C-13.93074353 50.92460199 -11.86118933 50.85350987 -9.79101562 50.81005859 C0.30344311 50.57146935 9.68310529 49.05523624 19.48339844 46.63964844 C20.40668945 46.41567383 21.32998047 46.19169922 22.28125 45.9609375 C23.09658203 45.75259277 23.91191406 45.54424805 24.75195312 45.32958984 C28.44067965 44.78877959 30.72474638 45.87079932 34.0625 47.4375 C38.14769158 49.2709411 42.33352169 49.8419888 46.7421875 50.47265625 C47.48726562 50.64667969 48.23234375 50.82070313 49 51 C49.33 51.66 49.66 52.32 50 53 C27.73696422 59.10273109 4.94540019 62.70327955 -18 65 C-19.48741699 65.15662109 -19.48741699 65.15662109 -21.00488281 65.31640625 C-68.99979087 70.24856591 -117.7594335 66.75419221 -164.6171875 55.55957031 C-166.9262057 55.01732956 -169.2403695 54.50902303 -171.55859375 54.0078125 C-176.12824185 52.99970581 -180.6232703 51.77407444 -185.125 50.5 C-185.88425781 50.28730469 -186.64351563 50.07460938 -187.42578125 49.85546875 C-191.9546884 48.58488034 -196.47813203 47.29538923 -201 46 C-201 45.34 -201 44.68 -201 44 C-195.29688027 40.49318808 -190.74796933 38.18145399 -184.01171875 39.28125 C-179.29237439 40.40752673 -174.62563185 41.70651067 -169.96484375 43.0534668 C-162.70895896 45.14239625 -155.42411894 46.61673256 -148 48 C-146.33293091 48.35226758 -144.66621959 48.70623594 -143 49.0625 C-129.5374938 51.68879219 -116.66935038 52.24979524 -103 52 C-104.485 51.01 -104.485 51.01 -106 50 C-104.98421875 49.84144531 -103.9684375 49.68289063 -102.921875 49.51953125 C-91.275329 47.58956466 -81.12824228 44.21505776 -71 38 C-70.319375 38.7425 -69.63875 39.485 -68.9375 40.25 C-63.67194465 45.47239506 -57.76266822 47.63345471 -50.6875 49.1875 C-43.16611018 50.91694491 -43.16611018 50.91694491 -41 52 C-37.68381703 51.81050383 -34.40828066 51.24272234 -31.125 50.75 C-30.21363281 50.62753906 -29.30226563 50.50507812 -28.36328125 50.37890625 C-27.48285156 50.24871094 -26.60242188 50.11851562 -25.6953125 49.984375 C-24.89109863 49.86803711 -24.08688477 49.75169922 -23.25830078 49.63183594 C-20.63086182 48.89672112 -19.09207038 47.72387709 -17 46 C-16.29101562 45.58621094 -15.58203125 45.17242188 -14.8515625 44.74609375 C-8.54645125 41.04045819 -4.96798737 36.68857154 -2 30 C-1.11767125 26.33010924 -0.81882833 22.81021764 -0.68359375 19.04296875 C-0.64169922 17.93115234 -0.59980469 16.81933594 -0.55664062 15.67382812 C-0.51732422 14.52333984 -0.47800781 13.37285156 -0.4375 12.1875 C-0.37272461 10.43276367 -0.37272461 10.43276367 -0.30664062 8.64257812 C-0.20081792 5.76184907 -0.09992927 2.88093951 0 0 Z " fill="#C8CF7D" transform="translate(561,652)"/>
<path d="M0 0 C0.95165039 0.09651855 1.90330078 0.19303711 2.88378906 0.29248047 C23.35956893 2.43431316 43.45014159 6.8350637 63.3125 12.1875 C64.19494385 12.42509033 65.0773877 12.66268066 65.98657227 12.9074707 C70.8556123 14.26597421 75.40237354 15.89663243 80 18 C80 19.65 80 21.3 80 23 C79.48695313 22.855625 78.97390625 22.71125 78.4453125 22.5625 C67.10883462 19.81426294 54.7638367 20.37863 43.26171875 21.87890625 C40.67024639 22.0176552 38.54074834 21.51790734 36 21 C19.35560376 20.15600349 5.69934638 21.60315068 -7 33 C-7.66644531 32.61328125 -8.33289063 32.2265625 -9.01953125 31.828125 C-26.51270005 21.94387298 -44.42691191 17.90492316 -64.08837891 23.00976562 C-71.91553905 25.3124455 -81.1807188 29.1807188 -87 35 C-91.12944173 34.75709166 -94.38226147 32.88714694 -97.9375 30.9375 C-100.4034002 29.72238763 -100.4034002 29.72238763 -105 29 C-105.33 20.42 -105.66 11.84 -106 3 C-74.83998484 -7.38667172 -32.22871149 -3.40399118 0 0 Z " fill="#A3D5E6" transform="translate(538,353)"/>
<path d="M0 0 C0.33 0 0.66 0 1 0 C1.33 6.93 1.66 13.86 2 21 C4.82851294 16.57385821 4.82851294 16.57385821 7.65356445 12.14550781 C8.75775619 10.42274006 9.87611426 8.7099736 11 7 C11.79470703 5.78570313 11.79470703 5.78570313 12.60546875 4.546875 C13.06566406 4.03640625 13.52585938 3.5259375 14 3 C14.99 3 15.98 3 17 3 C16.42923304 7.76843285 15.00396946 11.43142079 12.9375 15.75 C8.19606176 26.32139406 9.92356009 34.12884963 13 45 C13.33853705 46.3320216 13.67411638 47.66482632 14 49 C16.06546497 47.0248245 17.768209 45.04067277 19.375 42.6796875 C19.80296875 42.06222656 20.2309375 41.44476562 20.671875 40.80859375 C21.56094121 39.51421795 22.44633495 38.21731233 23.328125 36.91796875 C26.67592698 32.10802434 26.67592698 32.10802434 30 31 C29.7834375 31.79921875 29.566875 32.5984375 29.34375 33.421875 C26.81403509 43.40019492 24.56312238 53.67963836 30 63 C31.30887458 64.35735142 32.63884015 65.69508643 34 67 C34.51949219 66.33613281 35.03898437 65.67226563 35.57421875 64.98828125 C43.38476436 55.0987734 43.38476436 55.0987734 47 52 C47.99 52 48.98 52 50 52 C49.76023437 53.47339844 49.76023437 53.47339844 49.515625 54.9765625 C48.1140575 64.86208649 47.5980298 75.86998774 52 85 C52.99 85.33 53.98 85.66 55 86 C55.49371094 85.3503125 55.98742187 84.700625 56.49609375 84.03125 C57.13675781 83.1959375 57.77742188 82.360625 58.4375 81.5 C59.07558594 80.6646875 59.71367187 79.829375 60.37109375 78.96875 C61.17740234 77.99421875 61.17740234 77.99421875 62 77 C62.33 77 62.66 77 63 77 C63 91.85 63 106.7 63 122 C58 119 58 119 57 117 C55.34948712 115.88365848 55.34948712 115.88365848 53.4375 114.875 C52.303125 114.25625 51.16875 113.6375 50 113 C50 112.34 50 111.68 50 111 C49.34 111 48.68 111 48 111 C48 110.34 48 109.68 48 109 C47.34 109 46.68 109 46 109 C46 108.34 46 107.68 46 107 C45.34 107 44.68 107 44 107 C40.58255563 103.93306275 38.32816178 100.9113118 36 97 C33.65188048 94.05997223 31.2305413 91.17886503 28.51171875 88.57421875 C26.68309735 86.66999543 25.27723592 84.63279556 23.8125 82.4375 C23.28269531 81.65246094 22.75289062 80.86742187 22.20703125 80.05859375 C21 78 21 78 21 76 C20.34 76 19.68 76 19 76 C19 75.34 19 74.68 19 74 C17.68 73.67 16.36 73.34 15 73 C15 72.34 15 71.68 15 71 C11.98968256 70.06576355 11.13349732 69.95550089 8 71 C7.01 70.34 6.02 69.68 5 69 C3.515 68.5359375 3.515 68.5359375 2 68.0625 C-2.30909091 66.53636364 -2.30909091 66.53636364 -4 64 C-4 62.33333333 -4 60.66666667 -4 59 C-4.48984375 58.25234375 -4.9796875 57.5046875 -5.484375 56.734375 C-7.32064321 53.42151998 -7.33779901 51.3915777 -7.25 47.625 C-7.22421875 46.408125 -7.1984375 45.19125 -7.171875 43.9375 C-6.89589404 37.6150271 -6.4948468 31.30929672 -6 25 C-5.34 25 -4.68 25 -4 25 C-2.50178941 28.37097383 -2 30.20442119 -2 34 C-1.01 33.505 -1.01 33.505 0 33 C0 22.11 0 11.22 0 0 Z " fill="#596C49" transform="translate(219,517)"/>
<path d="M0 0 C1.98 0.495 1.98 0.495 4 1 C4 1.66 4 2.32 4 3 C5.3921875 3.4021875 5.3921875 3.4021875 6.8125 3.8125 C10.0134933 5.00502691 10.74048844 5.65862208 13 8 C14.6804913 9.34215611 16.36892984 10.67438537 18.0625 12 C29.34572837 21.20316373 37.76733776 30.09248623 39.6875 44.78515625 C40.98151329 59.46411953 40.64127858 74.49655066 38 89 C31.25088718 82.5706421 26.73484772 74.50630624 23 66 C22.49210937 64.84757813 21.98421875 63.69515625 21.4609375 62.5078125 C19.47343907 57.14113183 19.19919494 51.66916072 18.8125 46 C18.73064453 44.93910156 18.64878906 43.87820313 18.56445312 42.78515625 C18.36577865 40.19070129 18.17789655 37.59594827 18 35 C17.01 35 16.02 35 15 35 C15.53340719 55.29614351 20.91974885 74.97208662 34 91 C35.6280092 92.38026867 37.28043882 93.73561678 39 95 C39 95.66 39 96.32 39 97 C27.48585526 96.09098857 18.43567229 88.24614426 11 80 C-6.17300041 57.91175918 -1.42561505 26.18809346 0 0 Z " fill="#D1962A" transform="translate(170,476)"/>
<path d="M0 0 C0.99 0 1.98 0 3 0 C4.47870998 38.86435571 4.47870998 38.86435571 3.25 51.3125 C3.13906006 52.46045044 3.13906006 52.46045044 3.02587891 53.6315918 C2.10677818 61.29220148 0.4519506 69.08166644 -4.5625 75.125 C-5.16191406 75.87007812 -5.76132812 76.61515625 -6.37890625 77.3828125 C-8 79 -8 79 -10 79 C-10.226875 79.556875 -10.45375 80.11375 -10.6875 80.6875 C-13.11420254 84.96311877 -16.43250373 88.13916819 -21 90 C-21 90.66 -21 91.32 -21 92 C-22.93467942 92.83986084 -24.87285129 93.67168027 -26.8125 94.5 C-28.43091797 95.19609375 -28.43091797 95.19609375 -30.08203125 95.90625 C-33 97 -33 97 -36 97 C-34.43209327 93.15150165 -31.91061833 90.91061833 -29 88 C-25.22277285 83.35810639 -22.55569141 78.39534853 -20 73 C-19.34 73 -18.68 73 -18 73 C-17.87625 71.98808594 -17.7525 70.97617187 -17.625 69.93359375 C-17.02563 66.16130881 -16.09811579 62.71615731 -15 59.0625 C-12.71854948 51.09064013 -12.21697489 43.2558946 -12 35 C-12.99 35 -13.98 35 -15 35 C-15.02578125 36.14855469 -15.0515625 37.29710937 -15.078125 38.48046875 C-15.67292944 56.83216845 -21.0844944 72.10111084 -32 87 C-33.485 87.99 -33.485 87.99 -35 89 C-38.14966084 71.70498735 -41.45712747 45.89863533 -32.37890625 29.953125 C-26.25420926 21.2779168 -17.26762456 10.49536155 -7 7 C-7 6.34 -7 5.68 -7 5 C-5.03277992 3.61876037 -3.03131672 2.28511874 -1 1 C-0.67 0.67 -0.34 0.34 0 0 Z " fill="#D3972A" transform="translate(804,476)"/>
<path d="M0 0 C3.36687047 1.12229016 3.54452971 1.44419429 5.15625 4.37890625 C5.53910156 5.05244141 5.92195312 5.72597656 6.31640625 6.41992188 C7.10712261 7.85130117 7.89617925 9.28359854 8.68359375 10.71679688 C9.71259446 12.52361125 10.84950839 14.26800991 12 16 C12.99 16 13.98 16 15 16 C15 22.6 15 29.2 15 36 C14.34 36 13.68 36 13 36 C12.67 38.64 12.34 41.28 12 44 C11.34 44 10.68 44 10 44 C9.896875 44.825 9.79375 45.65 9.6875 46.5 C8.52921145 52.39674172 6.53310336 58.08437793 3 63 C2.34 63 1.68 63 1 63 C0.77441406 63.57363281 0.54882812 64.14726563 0.31640625 64.73828125 C-1.37167085 67.63856801 -3.40921024 69.13875727 -6.0625 71.1875 C-18.92736424 81.50287354 -27.56196636 93.11167137 -35.39453125 107.5390625 C-37.03936789 110.06034495 -38.43621906 111.45029063 -41 113 C-41.66 113 -42.32 113 -43 113 C-43 113.66 -43 114.32 -43 115 C-46.54963854 113.48451505 -48.89958735 111.39924001 -51.625 108.6875 C-52.40101563 107.92824219 -53.17703125 107.16898438 -53.9765625 106.38671875 C-56.01607711 103.98103646 -57.02029742 101.97597826 -58 99 C-56.989375 98.360625 -55.97875 97.72125 -54.9375 97.0625 C-50.33631516 93.81350009 -47.25381246 89.53951344 -44 85 C-42.79371992 87.33214148 -41.8345262 89.49642139 -41 92 C-37.19326288 87.66865954 -34.18868879 83.27583032 -31.375 78.25 C-30.9934375 77.59773437 -30.611875 76.94546875 -30.21875 76.2734375 C-24.47522691 66.09353796 -23.57960308 56.97207205 -23.8125 45.375 C-23.82603516 44.08464844 -23.83957031 42.79429687 -23.85351562 41.46484375 C-23.88857556 38.30944972 -23.93771856 35.15495422 -24 32 C-21.57697738 32.37489607 -20.3185748 32.64703916 -18.6496582 34.49609375 C-15.47759074 39.79865429 -13.21549481 45.17119373 -11.1875 51 C-10.72053711 52.30517578 -10.72053711 52.30517578 -10.24414062 53.63671875 C-9.48762135 55.75497271 -8.73979347 57.87585959 -8 60 C-3.58832866 55.58832866 -4.46790813 41.56540802 -3.75244141 35.15795898 C-3.30441769 31.2467736 -2.73756607 27.42059639 -1.9375 23.5625 C-0.41034279 15.81849022 -0.32889043 7.86740521 0 0 Z " fill="#596C49" transform="translate(749,525)"/>
<path d="M0 0 C10.6584546 1.52263637 18.29099166 5.4703847 25 14 C31.60860329 22.96680147 32.58323984 32.69118428 31.44921875 43.50341797 C30.21038648 50.38836295 26.75859962 56.20062508 23 62 C22.51144531 62.75796875 22.02289063 63.5159375 21.51953125 64.296875 C16.53367505 70.90569319 8.51784472 74.99286211 1 78 C0.67 52.26 0.34 26.52 0 0 Z " fill="#2D1818" transform="translate(335,569)"/>
<path d="M0 0 C0.69215607 -0.00067474 1.38431213 -0.00134949 2.09744263 -0.00204468 C36.55004058 0.0507884 76.69988949 3.51909967 109.375 15.25 C107.04285852 16.45628008 104.87857861 17.4154738 102.375 18.25 C107.325 18.25 112.275 18.25 117.375 18.25 C117.045 21.22 116.715 24.19 116.375 27.25 C114.395 27.25 112.415 27.25 110.375 27.25 C110.375 26.59 110.375 25.93 110.375 25.25 C109.694375 25.15203125 109.01375 25.0540625 108.3125 24.953125 C102.58547003 24.06970016 97.03516807 22.93872043 91.4375 21.4375 C73.83190009 16.81027367 55.46690605 14.15890977 37.375 12.25 C37.375 11.92 37.375 11.59 37.375 11.25 C40.015 10.92 42.655 10.59 45.375 10.25 C45.375 9.59 45.375 8.93 45.375 8.25 C44.0379879 8.57035721 44.0379879 8.57035721 42.67396545 8.89718628 C32.94962827 11.05681976 23.8233391 11.63833301 13.87109375 11.5078125 C12.3342408 11.49963993 10.79737909 11.4929901 9.26051331 11.48776245 C5.25622683 11.47084382 1.25229393 11.43673046 -2.75183105 11.39770508 C-9.15972544 11.33797129 -15.56779269 11.30418316 -21.97587395 11.27193832 C-24.1835168 11.25824898 -26.39096285 11.23662531 -28.598526 11.21365356 C-39.6567913 11.12158595 -50.71138186 11.39409056 -61.625 13.3125 C-69.53613892 14.69493116 -69.53613892 14.69493116 -73.625 14.25 C-76.14414241 11.92782757 -77.75266403 9.10308338 -79.625 6.25 C-70.71961939 4.64023286 -61.81537783 3.52574735 -52.8125 2.625 C-51.56146484 2.4909375 -50.31042969 2.356875 -49.02148438 2.21875 C-40.17436909 1.32537824 -31.50587421 1.09373828 -22.625 1.25 C-23.285 2.24 -23.945 3.23 -24.625 4.25 C-22.97803396 3.7747412 -21.33245272 3.29468109 -19.6875 2.8125 C-18.77097656 2.54566406 -17.85445313 2.27882813 -16.91015625 2.00390625 C-11.27575126 0.14503418 -6.25478792 0.00542432 0 0 Z " fill="#C6CC7B" transform="translate(502.625,337.75)"/>
<path d="M0 0 C6.68299764 2.94615131 10.88234097 7.47240141 14 14 C16.5357108 21.6071324 15.11993158 29.75774918 12 37 C9.2315196 41.72568449 5.14106708 45.15580961 0 47 C-5.04692527 47.97301082 -8.87399196 47.41950472 -13.3125 44.8125 C-18.49310967 41.15318047 -21.49341957 36.79603803 -24 31 C-25.04526258 23.08213596 -25.0109517 15.59225313 -20.49609375 8.80078125 C-14.97619243 2.15672248 -8.7249445 -1.56351005 0 0 Z " fill="#2F1A1A" transform="translate(455,604)"/>
<path d="M0 0 C6.68299764 2.94615131 10.88234097 7.47240141 14 14 C16.5357108 21.6071324 15.11993158 29.75774918 12 37 C9.2315196 41.72568449 5.14106708 45.15580961 0 47 C-5.04692527 47.97301082 -8.87399196 47.41950472 -13.3125 44.8125 C-18.49310967 41.15318047 -21.49341957 36.79603803 -24 31 C-25.04526258 23.08213596 -25.0109517 15.59225313 -20.49609375 8.80078125 C-14.97619243 2.15672248 -8.7249445 -1.56351005 0 0 Z " fill="#2F1A1A" transform="translate(497,425)"/>
<path d="M0 0 C0.99 0 1.98 0 3 0 C3.2475 0.78375 3.495 1.5675 3.75 2.375 C5.23946164 5.50286944 6.01907761 5.51495866 9 7 C13.48933126 11.20519637 16.26292975 15.06500999 18 21 C18.99 21.33 19.98 21.66 21 22 C23.7667759 24.97172226 24 25.74190625 24 30 C24.99 30.33 25.98 30.66 27 31 C28.31640625 33.6171875 28.31640625 33.6171875 29.5625 36.875 C30.86063104 40.2315382 31.9980965 42.99714475 34 46 C34 46.99 34 47.98 34 49 C31.69 48.67 29.38 48.34 27 48 C27.79817333 50.15414768 27.79817333 50.15414768 29.8125 50.7109375 C31.26939345 51.15320873 32.72773962 51.59072282 34.1875 52.0234375 C36 53 36 53 36.87890625 54.95703125 C36.93884766 55.96830078 36.93884766 55.96830078 37 57 C34.9375 59.3125 34.9375 59.3125 32 62 C30.89930994 63.21364871 29.81606529 64.44332694 28.75 65.6875 C28.24984375 66.26886719 27.7496875 66.85023438 27.234375 67.44921875 C25.91564199 68.99611534 25.91564199 68.99611534 25 71 C24.34 71 23.68 71 23 71 C21.68 65.06 20.36 59.12 19 53 C18.34 53 17.68 53 17 53 C16.75121094 52.00484375 16.50242187 51.0096875 16.24609375 49.984375 C15.03966311 45.76982576 13.15677443 42.08501997 11.0625 38.25 C10.71509766 37.59128906 10.36769531 36.93257813 10.00976562 36.25390625 C8.29595896 33.07158351 6.65088325 30.45039628 4 28 C3.17566711 26.72893187 2.38485967 25.43563045 1.625 24.125 C0.01828078 21.46829709 -1.56297387 19.26619201 -3.8125 17.125 C-4.534375 16.42375 -5.25625 15.7225 -6 15 C-6 14.34 -6 13.68 -6 13 C-3.69 13.66 -1.38 14.32 1 15 C-1.12780579 12.65941363 -3.11562221 11.29299694 -6 10 C-4.34406255 6.41213553 -2.37162309 3.16216412 0 0 Z " fill="#C7CE7C" transform="translate(748,429)"/>
<path d="M0 0 C0.66 1.65 1.32 3.3 2 5 C1.48050781 5.59425781 0.96101563 6.18851562 0.42578125 6.80078125 C-5.33986531 13.65348132 -9.17060264 20.51180793 -12 29 C-12.61875 29.5775 -13.2375 30.155 -13.875 30.75 C-16.03478562 33.03683183 -17.00401803 35.07971275 -18.140625 37.984375 C-19.77463794 41.81687807 -21.92905454 45.39017017 -24 49 C-24.66 49 -25.32 49 -26 49 C-26.33 51.31 -26.66 53.62 -27 56 C-27.66 56 -28.32 56 -29 56 C-29.33 58.64 -29.66 61.28 -30 64 C-30.66 64 -31.32 64 -32 64 C-32.12117187 64.90621094 -32.24234375 65.81242187 -32.3671875 66.74609375 C-33.30799951 73.58507339 -34.38006945 80.28885916 -36 87 C-36.66 86.67 -37.32 86.34 -38 86 C-38 85.34 -38 84.68 -38 84 C-38.5775 83.979375 -39.155 83.95875 -39.75 83.9375 C-42.72630154 82.69737436 -43.77883502 80.77298502 -45.24609375 77.9765625 C-46.8276537 73.83008926 -46.37108139 70.11324417 -45 66 C-44.34 66 -43.68 66 -43 66 C-42.896875 64.845 -42.79375 63.69 -42.6875 62.5 C-42.13964887 57.98828481 -40.7225121 54.19394251 -39 50 C-38.34 50 -37.68 50 -37 50 C-36.855625 49.05125 -36.71125 48.1025 -36.5625 47.125 C-36 44 -36 44 -35 42 C-34.34 42 -33.68 42 -33 42 C-32.87625 41.195625 -32.7525 40.39125 -32.625 39.5625 C-32.41875 38.716875 -32.2125 37.87125 -32 37 C-31.01 36.505 -31.01 36.505 -30 36 C-30 36.99 -30 37.98 -30 39 C-28.68 39 -27.36 39 -26 39 C-26.24878906 38.48953125 -26.49757812 37.9790625 -26.75390625 37.453125 C-27.73635247 34.77631502 -28.11393566 32.86466804 -28 30 C-25.95626353 26.12765722 -23.28525959 22.92056996 -20.41455078 19.62646484 C-18.95390284 17.94699702 -17.53508758 16.23840108 -16.12109375 14.51953125 C-4.09647358 0 -4.09647358 0 0 0 Z " fill="#C4CA7A" transform="translate(251,425)"/>
<path d="M0 0 C1.98 0.495 1.98 0.495 4 1 C4.75414709 6.09049286 5.02026852 10.95754098 4.91772461 16.10791016 C4.73147262 25.99097286 5.93524734 35.23753255 7.65820312 44.95166016 C8.3253699 48.94989532 8.66906228 52.96255981 9 57 C8.34 57 7.68 57 7 57 C10.39462485 64.22260607 13.89221357 70.84167594 19 77 C17.65041995 72.93759718 17.65041995 72.93759718 16.27246094 68.88476562 C9.89278656 50.28070894 9.89278656 50.28070894 11 42 C11.08121094 41.26394531 11.16242188 40.52789063 11.24609375 39.76953125 C11.47413526 37.84345755 11.73498815 35.92133588 12 34 C12 32.68 12 31.36 12 30 C12.99 29.67 13.98 29.34 15 29 C15.33 30.65 15.66 32.3 16 34 C16.99 34 17.98 34 19 34 C19 35.65 19 37.3 19 39 C18.67 37.68 18.34 36.36 18 35 C17.01 35 16.02 35 15 35 C15.53340719 55.29614351 20.91974885 74.97208662 34 91 C35.6280092 92.38026867 37.28043882 93.73561678 39 95 C39 95.66 39 96.32 39 97 C27.48585526 96.09098857 18.43567229 88.24614426 11 80 C-6.17300041 57.91175918 -1.42561505 26.18809346 0 0 Z " fill="#BF6E1E" transform="translate(170,476)"/>
<path d="M0 0 C4.29 0 8.58 0 13 0 C13.02578125 1.22074219 13.0515625 2.44148437 13.078125 3.69921875 C13.51848725 18.15753389 15.737304 29.79875224 24 42 C15.0591704 44.11125135 6.06521037 45.7177146 -3 47.1875 C-4.62893188 47.45578613 -4.62893188 47.45578613 -6.29077148 47.72949219 C-7.32919189 47.89481445 -8.3676123 48.06013672 -9.4375 48.23046875 C-10.82775391 48.45319458 -10.82775391 48.45319458 -12.24609375 48.68041992 C-15.18685175 49.02168342 -18.04213428 49.05363582 -21 49 C-19.00328861 47.45051582 -17.03622754 46.02114371 -14.8515625 44.74609375 C-8.54645125 41.04045819 -4.96798737 36.68857154 -2 30 C-1.11767125 26.33010924 -0.81882833 22.81021764 -0.68359375 19.04296875 C-0.64169922 17.93115234 -0.59980469 16.81933594 -0.55664062 15.67382812 C-0.51732422 14.52333984 -0.47800781 13.37285156 -0.4375 12.1875 C-0.39431641 11.01767578 -0.35113281 9.84785156 -0.30664062 8.64257812 C-0.20081792 5.76184907 -0.09992927 2.88093951 0 0 Z " fill="#A2D3E4" transform="translate(561,652)"/>
<path d="M0 0 C0.99 0 1.98 0 3 0 C3 2.97 3 5.94 3 9 C2.34 8.01 1.68 7.02 1 6 C0.5153125 6.49628906 0.030625 6.99257813 -0.46875 7.50390625 C-3.87521088 10.95622333 -7.29475751 14.30568789 -11 17.4375 C-20.0352652 25.28344739 -27.58428627 33.82657991 -28.92578125 46.12890625 C-29.07633643 48.27202646 -29.20502017 50.41678819 -29.3125 52.5625 C-29.38533203 53.63435547 -29.45816406 54.70621094 -29.53320312 55.81054688 C-29.92315821 61.88270466 -30.07021828 67.91654346 -30 74 C-23.75733066 61.33105339 -20.83542628 51.22423164 -20 37 C-18.515 36.505 -18.515 36.505 -17 36 C-16.67 35.34 -16.34 34.68 -16 34 C-14.515 34.495 -14.515 34.495 -13 35 C-13.66 35 -14.32 35 -15 35 C-15.02578125 36.14855469 -15.0515625 37.29710937 -15.078125 38.48046875 C-15.67292944 56.83216845 -21.0844944 72.10111084 -32 87 C-33.485 87.99 -33.485 87.99 -35 89 C-38.14966084 71.70498735 -41.45712747 45.89863533 -32.37890625 29.953125 C-26.25420926 21.2779168 -17.26762456 10.49536155 -7 7 C-7 6.34 -7 5.68 -7 5 C-5.03277992 3.61876037 -3.03131672 2.28511874 -1 1 C-0.67 0.67 -0.34 0.34 0 0 Z " fill="#BD6D1E" transform="translate(804,476)"/>
<path d="M0 0 C0.99 0.33 1.98 0.66 3 1 C3.78125 3.22265625 3.78125 3.22265625 4.5 6.0625 C8.2292405 16.80659439 19.21750661 20.72367697 28.71704102 25.56811523 C35.24353326 28.96393644 40.5184464 33.07589253 46 38 C47.33193645 39.1058513 48.66509495 40.21023401 50 41.3125 C52.37145639 43.36926075 54.24922616 45.37383925 56 48 C58.75119819 51.99064584 61.42249402 55.68749446 65 59 C62.38127412 60.22578658 60.8326179 60.88416804 58 61 C54.62809343 59.54728136 51.88838701 57.24032395 49 55 C46.79953037 53.36256772 44.59482919 51.73566962 42.375 50.125 C41.78783203 49.69719238 41.20066406 49.26938477 40.59570312 48.82861328 C35.65168495 45.30115456 30.49108835 42.40040641 25.06201172 39.68798828 C17.80409412 36.03222185 13.12675794 31.13690304 8 25 C7.3503125 24.26136719 6.700625 23.52273438 6.03125 22.76171875 C1.76876531 17.70438548 0.21328579 14.6118595 0 8 C-0.20625 6.700625 -0.4125 5.40125 -0.625 4.0625 C-0.74875 3.051875 -0.8725 2.04125 -1 1 C-0.67 0.67 -0.34 0.34 0 0 Z " fill="#C16F1E" transform="translate(215,622)"/>
<path d="M0 0 C0.4125 0.38671875 0.825 0.7734375 1.25 1.171875 C8.91986728 8.08845174 15.88192941 10.44311067 26.0234375 12.38671875 C29 13 29 13 31 14 C33.07662087 13.89150988 33.07662087 13.89150988 35.4375 13.51171875 C36.33339844 13.38216797 37.22929688 13.25261719 38.15234375 13.11914062 C39.09207031 12.97669922 40.03179688 12.83425781 41 12.6875 C41.90878906 12.55666016 42.81757812 12.42582031 43.75390625 12.29101562 C49.12913533 11.49964122 54.43873505 10.54737556 59.74755859 9.39038086 C63.2033977 8.79143367 66.50105322 8.87040938 70 9 C67.15385976 11.84614024 64.19630858 11.45579076 60.375 11.625 C59.31539062 11.68300781 59.31539062 11.68300781 58.234375 11.7421875 C56.49001476 11.83647724 54.74504309 11.91932891 53 12 C53 12.66 53 13.32 53 14 C53.99 13.67 54.98 13.34 56 13 C58.06145107 12.931009 60.12501401 12.91532273 62.1875 12.9375 C63.81751953 12.95103516 63.81751953 12.95103516 65.48046875 12.96484375 C66.31191406 12.97644531 67.14335938 12.98804688 68 13 C68 13.33 68 13.66 68 14 C62.67490039 14.74599011 57.34235701 15.39293713 52 16 C51.17419434 16.09603516 50.34838867 16.19207031 49.49755859 16.29101562 C34.54382866 17.95537171 19.654025 18.18844661 4.625 18.1875 C3.69659302 18.18840637 2.76818604 18.18931274 1.81164551 18.19024658 C-7.96173219 18.18916741 -17.71468255 18.04534523 -27.4765625 17.55078125 C-28.24914398 17.51228561 -29.02172546 17.47378998 -29.81771851 17.43412781 C-33.9392986 17.20127034 -37.94321888 16.76551372 -42 16 C-42 15.67 -42 15.34 -42 15 C-36.555 14.505 -36.555 14.505 -31 14 C-31.99 13.34 -32.98 12.68 -34 12 C-32.98421875 11.84144531 -31.9684375 11.68289063 -30.921875 11.51953125 C-19.70759772 9.66142313 -9.25434085 6.94075564 0 0 Z " fill="#2D2219" transform="translate(489,690)"/>
<path d="M0 0 C0.33 0 0.66 0 1 0 C1.00410889 0.68288086 1.00821777 1.36576172 1.01245117 2.06933594 C1.17314811 17.41910779 2.46860416 31.32294216 7 46 C7.40636903 47.3502246 7.81262522 48.70048316 8.21875 50.05078125 C8.89501446 52.26071691 9.58607145 54.46625925 10.30078125 56.6640625 C11 59 11 59 11 61 C11.66 61 12.32 61 13 61 C13.33 62.98 13.66 64.96 14 67 C14.66 67 15.32 67 16 67 C19 71.38461538 19 71.38461538 19 74 C17.68 73.67 16.36 73.34 15 73 C15 72.34 15 71.68 15 71 C11.98968256 70.06576355 11.13349732 69.95550089 8 71 C7.01 70.34 6.02 69.68 5 69 C3.515 68.5359375 3.515 68.5359375 2 68.0625 C-2.30909091 66.53636364 -2.30909091 66.53636364 -4 64 C-4 62.33333333 -4 60.66666667 -4 59 C-4.48984375 58.25234375 -4.9796875 57.5046875 -5.484375 56.734375 C-7.32064321 53.42151998 -7.33779901 51.3915777 -7.25 47.625 C-7.22421875 46.408125 -7.1984375 45.19125 -7.171875 43.9375 C-6.89589404 37.6150271 -6.4948468 31.30929672 -6 25 C-5.34 25 -4.68 25 -4 25 C-2.50178941 28.37097383 -2 30.20442119 -2 34 C-1.01 33.505 -1.01 33.505 0 33 C0 22.11 0 11.22 0 0 Z " fill="#261614" transform="translate(219,517)"/>
<path d="M0 0 C1.11955078 0.09087891 1.11955078 0.09087891 2.26171875 0.18359375 C30.85153011 2.30256495 59.39062517 2.18143976 88.02084351 1.42880249 C102.0184805 1.06129169 115.99675024 0.87073923 130 1 C130 1.66 130 2.32 130 3 C87.72567135 8.86729486 44.27226707 8.96831185 2 3 C2 2.34 2 1.68 2 1 C1.34 0.67 0.68 0.34 0 0 Z " fill="#271414" transform="translate(432,717)"/>
<path d="M0 0 C0.639375 0.639375 1.27875 1.27875 1.9375 1.9375 C2.39769531 2.39253906 2.85789062 2.84757813 3.33203125 3.31640625 C4.5583202 4.55418269 5.76078796 5.81567447 6.94921875 7.08984375 C11.75603657 12.13829694 16.61022561 15.94962023 22.6171875 19.4921875 C24.74225833 20.83690445 26.32224838 22.14447338 28 24 C13.93945975 23.4042144 0.42108828 18.94244468 -13 15 C-13 12 -13 12 -10.41015625 9.3359375 C-9.30171641 8.34060376 -8.18545849 7.35392409 -7.0625 6.375 C-6.49853516 5.87226562 -5.93457031 5.36953125 -5.35351562 4.8515625 C-3.9068874 3.56259077 -2.45389845 2.28076564 -1 1 C-0.67 0.67 -0.34 0.34 0 0 Z " fill="#A1D1E2" transform="translate(393,673)"/>
<path d="M0 0 C0.66 0.33 1.32 0.66 2 1 C1.33613281 1.59167969 0.67226563 2.18335938 -0.01171875 2.79296875 C-5.47363006 7.67274235 -5.47363006 7.67274235 -10.75 12.75 C-13.35698838 15.35698838 -16.16849823 17.64041519 -19 20 C-21.71632349 22.59285424 -23.91569854 24.87354781 -26 28 C-10.63634419 28.45261179 4.27664713 26.50295699 18.22265625 19.76953125 C20 19 20 19 22 19 C20.58283726 23.25148821 18.34151924 24.24678749 14.53515625 26.4375 C2.95287397 31.55674078 -10.39077675 34.08278648 -23 33 C-23.99257813 32.92007813 -24.98515625 32.84015625 -26.0078125 32.7578125 C-28.34533803 32.54294247 -30.67137593 32.29436331 -33 32 C-30.35974401 23.55118084 -23.96227721 17.66819796 -17.1875 12.375 C-16.48625 11.81594971 -15.785 11.25689941 -15.0625 10.6809082 C-10.21671745 6.85343417 -5.280348 3.2122117 0 0 Z " fill="#C06E1E" transform="translate(738,653)"/>
<path d="M0 0 C7.45238788 -0.32482388 14.48652942 0.89532511 21.8125 2.1875 C23.09608398 2.41091064 24.37966797 2.63432129 25.70214844 2.86450195 C35.27342447 4.57948554 44.60061099 6.7757573 53.94335938 9.44677734 C57.59844148 10.42997013 61.2981881 11.21452246 65 12 C65 12.66 65 13.32 65 14 C66.98 14 68.96 14 71 14 C71 14.33 71 14.66 71 15 C69.02 15 67.04 15 65 15 C65 15.66 65 16.32 65 17 C66.32 17 67.64 17 69 17 C69 17.66 69 18.32 69 19 C61.30808158 17.26331956 53.65421477 15.41877983 46.01855469 13.44995117 C27.49983976 8.69468635 9.00886379 5.06973302 -10 3 C-10 2.67 -10 2.34 -10 2 C-6.7 1.67 -3.4 1.34 0 1 C0 0.67 0 0.34 0 0 Z " fill="#423731" transform="translate(548,351)"/>
<path d="M0 0 C0.4125 0.38671875 0.825 0.7734375 1.25 1.171875 C7.20737044 6.54414655 13.31431145 9.69429343 21 12 C21 12.33 21 12.66 21 13 C4.67595551 15.64034609 -12.55973786 13.712898 -29 13 C-25.92199182 10.94799455 -23.60349833 10.22860318 -20.0625 9.25 C-9.25191777 6.11212027 -9.25191777 6.11212027 0 0 Z " fill="#9ECDDD" transform="translate(489,690)"/>
<path d="M0 0 C0.66 0 1.32 0 2 0 C2.11069824 0.589021 2.22139648 1.17804199 2.33544922 1.78491211 C2.84711966 4.50272874 3.36104772 7.22011399 3.875 9.9375 C4.13603516 11.32678711 4.13603516 11.32678711 4.40234375 12.74414062 C5.49727022 18.52291924 6.69421122 24.26511685 8 30 C8.66 30 9.32 30 10 30 C10.81332743 32.10384698 11.62563417 34.20808857 12.4375 36.3125 C12.88996094 37.48425781 13.34242188 38.65601563 13.80859375 39.86328125 C14.57984755 41.89382815 15.31312642 43.93937926 16 46 C4.68508584 43.14967811 4.68508584 43.14967811 2 39 C1.957279 37.33388095 1.95936168 35.66617115 2 34 C1.51144531 33.25363281 1.02289063 32.50726562 0.51953125 31.73828125 C-1.32037109 28.42267317 -1.33789106 26.39552635 -1.25 22.625 C-1.22421875 21.408125 -1.1984375 20.19125 -1.171875 18.9375 C-0.89589404 12.6150271 -0.4948468 6.30929672 0 0 Z " fill="#C5CC7B" transform="translate(213,542)"/>
<path d="M0 0 C16.0293827 4.33226559 37.75054699 19.12582049 47 33 C46.625 35.6875 46.625 35.6875 46 38 C45.360625 37.34 44.72125 36.68 44.0625 36 C43.04646244 34.99512769 42.02500722 33.9957213 41 33 C40.43796875 32.4534375 39.8759375 31.906875 39.296875 31.34375 C28.57869085 21.3851222 16.17839989 12.39889814 3 6 C1.66666667 5.33333333 0.33333333 4.66666667 -1 4 C-0.67 2.68 -0.34 1.36 0 0 Z " fill="#311A17" transform="translate(225,642)"/>
<path d="M0 0 C1.98 0.99 1.98 0.99 4 2 C4 2.66 4 3.32 4 4 C4.556875 4.268125 5.11375 4.53625 5.6875 4.8125 C8.21225334 6.10899496 10.63714484 7.42476323 13 9 C13 9.66 13 10.32 13 11 C14.98 11.66 16.96 12.32 19 13 C19 17.62 19 22.24 19 27 C15.31534877 26.07883719 13.09884058 25.0938112 10 23 C9.67 22.34 9.34 21.68 9 21 C8.01 20.67 7.02 20.34 6 20 C5.16311718 17.55785086 4.51049162 15.25418559 3.9375 12.75 C2.88710755 8.37125556 1.80605427 4.14188446 0 0 Z " fill="#C2C879" transform="translate(263,631)"/>
<path d="M0 0 C0.495 1.98 0.495 1.98 1 4 C0.47535156 3.608125 -0.04929687 3.21625 -0.58984375 2.8125 C-3.10357929 1.68900107 -3.10357929 1.68900107 -6.00390625 3.0625 C-7.20140954 3.68712153 -8.38698772 4.33491573 -9.5625 5 C-10.20219727 5.3501416 -10.84189453 5.7002832 -11.50097656 6.06103516 C-19.88431794 10.82783741 -27.51401041 16.75674351 -35.15332031 22.61474609 C-36.72971986 23.79725417 -38.36034131 24.90689421 -40 26 C-40 22.37 -40 18.74 -40 15 C-39.34 16.32 -38.68 17.64 -38 19 C-37.48953125 18.5153125 -36.9790625 18.030625 -36.453125 17.53125 C-25.86687147 7.7708744 -15.01024256 -0.43586911 0 0 Z " fill="#BE6E1E" transform="translate(753,641)"/>
<path d="M0 0 C0.66 0 1.32 0 2 0 C2.33 0.66 2.66 1.32 3 2 C3.99 1.34 4.98 0.68 6 0 C7.2077558 3.62326739 6.54311128 4.64146369 5 8 C4.34 8 3.68 8 3 8 C0.62466424 16.65557956 -1.69390015 25.32578684 -4 34 C-5.65 33.34 -7.3 32.68 -9 32 C-8.69095829 29.72869344 -8.37765093 27.45796695 -8.0625 25.1875 C-7.88847656 23.92292969 -7.71445313 22.65835937 -7.53515625 21.35546875 C-7 18 -7 18 -6 15 C-5.34 15 -4.68 15 -4 15 C-4.020625 14.05125 -4.04125 13.1025 -4.0625 12.125 C-4 9 -4 9 -3 7 C-2.34 7 -1.68 7 -1 7 C-0.67 4.69 -0.34 2.38 0 0 Z " fill="#311F1E" transform="translate(225,474)"/>
<path d="M0 0 C0.57363281 0.24234375 1.14726562 0.4846875 1.73828125 0.734375 C10.17711246 4.06380765 18.80329468 5.78038721 27.66918945 7.52685547 C30.77885685 8.1581046 33.87151165 8.85771033 36.96411133 9.56738281 C39.96023451 10.20404551 42.96240415 10.61222181 46 11 C46 11.33 46 11.66 46 12 C37.42857143 12.14285714 37.42857143 12.14285714 34 11 C34 11.66 34 12.32 34 13 C36.475 13.495 36.475 13.495 39 14 C35.64421496 15.1078861 33.35670393 14.87205107 29.9296875 14.109375 C28.95 13.89410156 27.9703125 13.67882812 26.9609375 13.45703125 C25.94257813 13.22371094 24.92421875 12.99039063 23.875 12.75 C22.87984375 12.53214844 21.8846875 12.31429687 20.859375 12.08984375 C14.48036976 10.66580994 8.23157026 8.97003573 2 7 C3.32 6.67 4.64 6.34 6 6 C4.60804085 3.2160817 2.84424221 3.02101003 0 2 C0 1.34 0 0.68 0 0 Z " fill="#453A33" transform="translate(378,686)"/>
<path d="M0 0 C0 0.66 0 1.32 0 2 C-0.99 2.33 -1.98 2.66 -3 3 C-1.68 4.32 -0.36 5.64 1 7 C-2.91665027 7.02953391 -6.83327113 7.04697503 -10.75 7.0625 C-11.84183594 7.07087891 -12.93367187 7.07925781 -14.05859375 7.08789062 C-21.4247337 7.10968394 -28.67078775 6.7350759 -36 6 C-36 5.67 -36 5.34 -36 5 C-32.04 5 -28.08 5 -24 5 C-24 4.34 -24 3.68 -24 3 C-31.26 3 -38.52 3 -46 3 C-46 2.67 -46 2.34 -46 2 C-45.12375977 2.01047363 -44.24751953 2.02094727 -43.34472656 2.03173828 C-40.03464019 2.06620926 -36.72474975 2.09108521 -33.41455078 2.10986328 C-31.99297032 2.1198044 -30.57140964 2.13336208 -29.14990234 2.15087891 C-21.06572042 2.24786627 -13.31740749 2.01044445 -5.34667969 0.43310547 C-3 0 -3 0 0 0 Z " fill="#3C2E29" transform="translate(548,346)"/>
<path d="M0 0 C0.33 0 0.66 0 1 0 C1.00410889 0.68288086 1.00821777 1.36576172 1.01245117 2.06933594 C1.16570641 16.70827664 2.27044446 30.08076954 6.46484375 44.13134766 C7.11405088 46.39824153 7.59218249 48.67822076 8 51 C7.34 50.67 6.68 50.34 6 50 C6 49.01 6 48.02 6 47 C4.68 46.34 3.36 45.68 2 45 C2.33 48.3 2.66 51.6 3 55 C-2.10574216 47.34138676 -2.59630095 39.00666493 -3 30 C-2.67 31.32 -2.34 32.64 -2 34 C-1.01 33.505 -1.01 33.505 0 33 C0 22.11 0 11.22 0 0 Z " fill="#494643" transform="translate(219,517)"/>
<path d="M0 0 C0 0.33 0 0.66 0 1 C-21.67356196 3.7257349 -43.16945234 4.16870593 -65 4 C-64.67 3.34 -64.34 2.68 -64 2 C-58.27475075 1.00603033 -52.57757451 0.80349339 -46.77734375 0.68359375 C-45.48262901 0.6524221 -45.48262901 0.6524221 -44.16175842 0.62062073 C-42.34233936 0.57761357 -40.5228736 0.53654252 -38.70336914 0.49731445 C-35.96944156 0.43819077 -33.2357147 0.37295696 -30.50195312 0.30664062 C-20.33255977 0.0681305 -10.17224459 -0.06147256 0 0 Z " fill="#180E0D" transform="translate(553,718)"/>
<path d="M0 0 C5.85705854 1.18281231 8.10079589 2.56296137 11.625 7.625 C12.3778125 8.70136719 13.130625 9.77773438 13.90625 10.88671875 C14.94265625 12.42779297 14.94265625 12.42779297 16 14 C16.85078125 15.18529297 16.85078125 15.18529297 17.71875 16.39453125 C21.04804632 21.23125895 21.04804632 21.23125895 20.8125 25 C20.544375 25.66 20.27625 26.32 20 27 C18.1316777 24.68328035 16.27288927 22.36550195 14.4921875 19.98046875 C10.63191385 14.85438444 6.48354936 10.35562804 1.8203125 5.9453125 C0 4 0 4 -1 1 C-0.67 0.67 -0.34 0.34 0 0 Z " fill="#382828" transform="translate(734,445)"/>
<path d="M0 0 C1.27508423 0.04543945 1.27508423 0.04543945 2.57592773 0.09179688 C29.74500368 1.62995245 29.74500368 1.62995245 56.80078125 0.0234375 C59.40029705 -0.00426604 60.74056824 0.7851371 63 2 C52.0336553 2.99906913 41.18743964 3.09281717 30.1875 3 C26.95182701 2.97345996 23.71620875 2.95352812 20.48046875 2.9375 C19.74209274 2.92920166 19.00371674 2.92090332 18.2429657 2.91235352 C16.49508718 2.90380611 14.74708404 2.94661725 13 3 C12.67 3.33 12.34 3.66 12 4 C13.65 4 15.3 4 17 4 C17 4.33 17 4.66 17 5 C13.95827281 5.0271045 10.91679003 5.04688964 7.875 5.0625 C7.0190625 5.07087891 6.163125 5.07925781 5.28125 5.08789062 C0.73321589 5.10538306 -3.52383164 4.93192358 -8 4 C-8 3.67 -8 3.34 -8 3 C-2.555 2.505 -2.555 2.505 3 2 C2.01 1.34 1.02 0.68 0 0 Z " fill="#473E3A" transform="translate(455,702)"/>
<path d="M0 0 C9.32540597 -0.11135736 18.53733954 0.18232306 27.8359375 0.875 C29.0813028 0.96378418 30.32666809 1.05256836 31.60977173 1.14404297 C35.53186554 1.42471443 39.45342125 1.71223086 43.375 2 C46.0572189 2.19372527 48.73954507 2.38594391 51.421875 2.578125 C57.94830181 3.04686905 64.47430273 3.52121217 71 4 C71 4.33 71 4.66 71 5 C58.92715899 5.11874926 46.8796665 4.96820314 34.8125 4.5625 C33.59667236 4.52326416 32.38084473 4.48402832 31.12817383 4.44360352 C25.12160353 4.2281527 19.16493303 3.90419689 13.19018555 3.24169922 C10.06900262 2.89725923 6.94143315 2.64151314 3.8125 2.37890625 C2 2 2 2 0 0 Z " fill="#38291F" transform="translate(426,715)"/>
<path d="M0 0 C0.66 0.33 1.32 0.66 2 1 C-0.67540747 4.56720996 -3.35659412 7.41126424 -7 10 C-7.66 10 -8.32 10 -9 10 C-9 10.66 -9 11.32 -9 12 C-10.93467942 12.83986084 -12.87285129 13.67168027 -14.8125 14.5 C-15.89144531 14.9640625 -16.97039063 15.428125 -18.08203125 15.90625 C-21 17 -21 17 -24 17 C-21.99155908 12.07019047 -18.35894926 8.90596617 -14 6 C-14 6.99 -14 7.98 -14 9 C-12.41499412 8.0653305 -10.83206584 7.12713737 -9.25 6.1875 C-8.36828125 5.66542969 -7.4865625 5.14335938 -6.578125 4.60546875 C-4.28027203 3.17453304 -2.13493054 1.66105577 0 0 Z " fill="#BD6D1D" transform="translate(792,556)"/>
<path d="M0 0 C0.66 0 1.32 0 2 0 C3.33333333 1.33333333 4.66666667 2.66666667 6 4 C6.639375 4.28875 7.27875 4.5775 7.9375 4.875 C11.09198874 6.59563022 12.795024 9.18253067 15 12 C14.01 13.32 13.02 14.64 12 16 C11.01 15.34 10.02 14.68 9 14 C9 13.34 9 12.68 9 12 C8.278125 11.773125 7.55625 11.54625 6.8125 11.3125 C3.42644123 9.73233924 1.53322341 7.72808675 -1 5 C-1.763125 4.236875 -2.52625 3.47375 -3.3125 2.6875 C-3.869375 2.130625 -4.42625 1.57375 -5 1 C-2.525 1.495 -2.525 1.495 0 2 C0 1.34 0 0.68 0 0 Z " fill="#3E2F24" transform="translate(267,628)"/>
<path d="M0 0 C-2.84614024 2.84614024 -5.80369142 2.45579076 -9.625 2.625 C-10.68460938 2.68300781 -10.68460938 2.68300781 -11.765625 2.7421875 C-13.50998524 2.83647724 -15.25495691 2.91932891 -17 3 C-17 3.66 -17 4.32 -17 5 C-16.01 4.67 -15.02 4.34 -14 4 C-11.93854893 3.931009 -9.87498599 3.91532273 -7.8125 3.9375 C-6.18248047 3.95103516 -6.18248047 3.95103516 -4.51953125 3.96484375 C-3.68808594 3.97644531 -2.85664062 3.98804688 -2 4 C-2 4.33 -2 4.66 -2 5 C-15.67814393 6.80853508 -29.17527166 8.22418478 -43 8 C-43 7.67 -43 7.34 -43 7 C-41.42412109 6.83564453 -41.42412109 6.83564453 -39.81640625 6.66796875 C-32.98411969 5.91226411 -26.54554235 5.15875589 -20.07421875 2.73046875 C-13.49410713 0.41317897 -6.92789036 -0.25658853 0 0 Z " fill="#42342C" transform="translate(559,699)"/>
<path d="M0 0 C0.66 0 1.32 0 2 0 C2.33 0.66 2.66 1.32 3 2 C3.99 1.34 4.98 0.68 6 0 C7.2077558 3.62326739 6.54311128 4.64146369 5 8 C4.34 8 3.68 8 3 8 C2.7525 9.093125 2.505 10.18625 2.25 11.3125 C0.97997149 15.05908409 0.34243648 16.10595266 -3 18 C-2.979375 17.2575 -2.95875 16.515 -2.9375 15.75 C-2.89438005 13.06766043 -2.89438005 13.06766043 -3.5625 10.8125 C-4 9 -4 9 -3 7 C-2.34 7 -1.68 7 -1 7 C-0.67 4.69 -0.34 2.38 0 0 Z " fill="#3E312A" transform="translate(225,474)"/>
<path d="M0 0 C3.16816727 2.74841009 5.11112225 6.22671202 7.1875 9.8125 C7.55552734 10.41642578 7.92355469 11.02035156 8.30273438 11.64257812 C10.59941025 15.60104175 11.42609858 18.43864968 11 23 C11.66 23 12.32 23 13 23 C13.66 25.31 14.32 27.62 15 30 C14.34 29.67 13.68 29.34 13 29 C13 28.34 13 27.68 13 27 C12.01 26.67 11.02 26.34 10 26 C8.92504883 24.3894043 8.92504883 24.3894043 7.95703125 22.32421875 C7.60576172 21.57849609 7.25449219 20.83277344 6.89257812 20.06445312 C6.53615234 19.28005859 6.17972656 18.49566406 5.8125 17.6875 C5.44447266 16.91470703 5.07644531 16.14191406 4.69726562 15.34570312 C2.91416011 11.49829734 2 9.35544965 2 5 C1.34 5 0.68 5 0 5 C0 3.35 0 1.7 0 0 Z " fill="#4E402D" transform="translate(754,459)"/>
<path d="M0 0 C5.94 0.99 5.94 0.99 12 2 C12 2.66 12 3.32 12 4 C13.98 4 15.96 4 18 4 C18 4.33 18 4.66 18 5 C16.02 5 14.04 5 12 5 C12 5.66 12 6.32 12 7 C13.32 7 14.64 7 16 7 C16 7.66 16 8.32 16 9 C2.3667426 5.92482916 2.3667426 5.92482916 -4 4 C-3.38125 3.855625 -2.7625 3.71125 -2.125 3.5625 C0.03258322 3.06847775 0.03258322 3.06847775 2 2 C1.34 1.34 0.68 0.68 0 0 Z " fill="#494139" transform="translate(601,361)"/>
<path d="M0 0 C-15.20524703 5.02626669 -31.18044773 4.14857259 -47 4 C-47 3.67 -47 3.34 -47 3 C-46.01717041 2.91435791 -45.03434082 2.82871582 -44.02172852 2.74047852 C-40.33706433 2.41911851 -36.65252406 2.09635599 -32.96801758 1.77319336 C-31.38048538 1.63414532 -29.79292086 1.49546571 -28.20532227 1.35717773 C-25.9089285 1.15708303 -23.61265217 0.95568996 -21.31640625 0.75390625 C-20.20696152 0.65730209 -20.20696152 0.65730209 -19.07510376 0.55874634 C-15.25655766 0.22104958 -11.45472438 -0.17462989 -7.65234375 -0.66015625 C-4.49421965 -0.95401379 -2.92001838 -0.85906562 0 0 Z " fill="#50412E" transform="translate(564,715)"/>
<path d="M0 0 C0 0.66 0 1.32 0 2 C-0.99 2.33 -1.98 2.66 -3 3 C-1.68 4.32 -0.36 5.64 1 7 C-1.27057377 7.05398987 -3.54151288 7.09278742 -5.8125 7.125 C-7.70935547 7.15980469 -7.70935547 7.15980469 -9.64453125 7.1953125 C-13 7 -13 7 -16 5 C-11.0138266 0.16964451 -6.75060669 0 0 0 Z " fill="#231212" transform="translate(548,346)"/>
<path d="M0 0 C1.15680267 0.00212242 1.15680267 0.00212242 2.3369751 0.00428772 C4.79239838 0.00987091 7.24772942 0.0224203 9.703125 0.03515625 C11.37109243 0.04017342 13.03906129 0.04473595 14.70703125 0.04882812 C18.78909787 0.05983484 22.87109581 0.07708789 26.953125 0.09765625 C26.953125 0.42765625 26.953125 0.75765625 26.953125 1.09765625 C25.93327515 1.1116748 25.93327515 1.1116748 24.89282227 1.12597656 C21.76639605 1.18016901 18.64138852 1.26371864 15.515625 1.34765625 C14.44634766 1.36183594 13.37707031 1.37601562 12.27539062 1.390625 C6.01216019 1.5821611 1.30384001 2.319706 -4.22680664 5.34667969 C-6.046875 6.09765625 -6.046875 6.09765625 -9.046875 5.09765625 C-8.716875 4.43765625 -8.386875 3.77765625 -8.046875 3.09765625 C-9.366875 2.43765625 -10.686875 1.77765625 -12.046875 1.09765625 C-8.09573952 -0.20585762 -4.10862757 -0.02846656 0 0 Z " fill="#3F2D23" transform="translate(486.046875,336.90234375)"/>
<path d="M0 0 C0 0.33 0 0.66 0 1 C-2.31 1 -4.62 1 -7 1 C-7 1.66 -7 2.32 -7 3 C-3.37 3 0.26 3 4 3 C4 3.33 4 3.66 4 4 C-3.02639415 4.74805717 -9.93391809 5.13794954 -17 5 C-17 4.67 -17 4.34 -17 4 C-13.535 3.505 -13.535 3.505 -10 3 C-16.6 3 -23.2 3 -30 3 C-30 2.67 -30 2.34 -30 2 C-20.22493683 -0.17833805 -9.97480459 -0.1832107 0 0 Z " fill="#51473B" transform="translate(473,348)"/>
<path d="M0 0 C3.875 2.625 3.875 2.625 5 6 C5.66 6.33 6.32 6.66 7 7 C7.625 10.0625 7.625 10.0625 8 13 C7.01 12.67 6.02 12.34 5 12 C4.01 13.485 4.01 13.485 3 15 C2.29911844 13.25531628 1.61475991 11.50398839 0.9375 9.75 C0.55464844 8.77546875 0.17179688 7.8009375 -0.22265625 6.796875 C-1.01113787 3.95992605 -1.02437812 2.70590448 0 0 Z " fill="#33241E" transform="translate(221,561)"/>
<path d="M0 0 C0.99 0.33 1.98 0.66 3 1 C3 1.66 3 2.32 3 3 C3.58265625 3.22429687 4.1653125 3.44859375 4.765625 3.6796875 C7.6397829 5.37805353 8.9055605 7.35834074 10.75 10.125 C11.67039062 11.49011719 11.67039062 11.49011719 12.609375 12.8828125 C13.29773438 13.93082031 13.29773438 13.93082031 14 15 C13.67 15.66 13.34 16.32 13 17 C10.84797791 14.90185329 8.70336384 12.79697945 6.5625 10.6875 C5.95083984 10.09259766 5.33917969 9.49769531 4.70898438 8.88476562 C3.8340332 8.01948242 3.8340332 8.01948242 2.94140625 7.13671875 C2.40201416 6.60780029 1.86262207 6.07888184 1.30688477 5.53393555 C0 4 0 4 -1 1 C-0.67 0.67 -0.34 0.34 0 0 Z " fill="#B3C9D1" transform="translate(734,445)"/>
<path d="M0 0 C-3.465 1.485 -3.465 1.485 -7 3 C-7 3.33 -7 3.66 -7 4 C-14.68604474 4.97159933 -22.25863399 5.10920422 -30 5 C-30 4.67 -30 4.34 -30 4 C-28.97845825 3.82609741 -28.97845825 3.82609741 -27.9362793 3.64868164 C-24.85293227 3.12238484 -21.77021514 2.59248493 -18.6875 2.0625 C-17.61564453 1.88009766 -16.54378906 1.69769531 -15.43945312 1.50976562 C-13.89741211 1.24389648 -13.89741211 1.24389648 -12.32421875 0.97265625 C-10.9024231 0.72914429 -10.9024231 0.72914429 -9.4519043 0.48071289 C-2.71009845 -0.84106504 -2.71009845 -0.84106504 0 0 Z " fill="#3C2F22" transform="translate(602,708)"/>
<path d="M0 0 C1.485 0.99 1.485 0.99 3 2 C3.34057617 4.52197266 3.34057617 4.52197266 3.29296875 7.6640625 C3.28330078 8.78554688 3.27363281 9.90703125 3.26367188 11.0625 C3.23853516 12.238125 3.21339844 13.41375 3.1875 14.625 C3.17396484 15.80835938 3.16042969 16.99171875 3.14648438 18.2109375 C3.11103916 21.14107539 3.06162769 24.07031459 3 27 C2.34 27 1.68 27 1 27 C0.67 18.09 0.34 9.18 0 0 Z " fill="#61563A" transform="translate(212,515)"/>
<path d="M0 0 C0.33 0.66 0.66 1.32 1 2 C2.65 1.34 4.3 0.68 6 0 C6 1.32 6 2.64 6 4 C6.66 4 7.32 4 8 4 C10.125 8.625 10.125 8.625 9 12 C8.9175 11.38125 8.835 10.7625 8.75 10.125 C8.08785794 7.46510021 8.08785794 7.46510021 4 6 C4.33 9.3 4.66 12.6 5 16 C3.26453924 13.39680887 2.34824767 11.47732763 1.375 8.5625 C1.11460937 7.80066406 0.85421875 7.03882813 0.5859375 6.25390625 C0 4 0 4 0 0 Z " fill="#4D412E" transform="translate(217,556)"/>
<path d="M0 0 C1.21300781 -0.02578125 2.42601562 -0.0515625 3.67578125 -0.078125 C4.66964844 0.03015625 5.66351563 0.1384375 6.6875 0.25 C7.3475 1.24 8.0075 2.23 8.6875 3.25 C1.0975 3.25 -6.4925 3.25 -14.3125 3.25 C-14.3125 2.59 -14.3125 1.93 -14.3125 1.25 C-9.54098717 0.34114041 -4.85763114 0.09984853 0 0 Z " fill="#2C1918" transform="translate(480.3125,347.75)"/>
<path d="M0 0 C4.84455959 2.20207254 4.84455959 2.20207254 7 4 C7.9375 7.75 7.9375 7.75 8 11 C8.66 11 9.32 11 10 11 C10.69685498 12.6210103 11.38222861 14.24696066 12.0625 15.875 C12.44535156 16.77992188 12.82820312 17.68484375 13.22265625 18.6171875 C14 21 14 21 13 23 C12.48050781 22.07058594 11.96101562 21.14117187 11.42578125 20.18359375 C7.03101527 12.26688774 7.03101527 12.26688774 2 4.75 C0 2 0 2 0 0 Z " fill="#130B0A" transform="translate(746,453)"/>
<path d="M0 0 C1.95486306 5.21296816 0.58694473 10.91905189 -1.375 15.9375 C-3 19 -3 19 -6 20 C-5.40075776 15.80530429 -4.42500059 11.99000166 -3 8 C-2.34 8 -1.68 8 -1 8 C-0.67 5.36 -0.34 2.72 0 0 Z " fill="#342720" transform="translate(762,561)"/>
<path d="M0 0 C2 0 2 0 4.5625 2.375 C7 5 7 5 8 7 C7.67 7.66 7.34 8.32 7 9 C0.85169289 7.79444959 -1.35248219 6.08441876 -5 1 C-2.525 1.495 -2.525 1.495 0 2 C0 1.34 0 0.68 0 0 Z " fill="#3F2E24" transform="translate(267,628)"/>
<path d="M0 0 C0.33 0 0.66 0 1 0 C1 3.96 1 7.92 1 12 C1.66 12 2.32 12 3 12 C2.67 14.31 2.34 16.62 2 19 C-0.475 18.01 -0.475 18.01 -3 17 C-2.69095829 14.72869344 -2.37765093 12.45796695 -2.0625 10.1875 C-1.88847656 8.92292969 -1.71445313 7.65835937 -1.53515625 6.35546875 C-1 3 -1 3 0 0 Z " fill="#403026" transform="translate(219,489)"/>
<path d="M0 0 C2.875 -0.125 2.875 -0.125 6 0 C6.66 0.66 7.32 1.32 8 2 C10.06874034 2.6425235 10.06874034 2.6425235 12 3 C11.67 3.99 11.34 4.98 11 6 C11 5.34 11 4.68 11 4 C3.08 4.495 3.08 4.495 -5 5 C-3.74458443 2.48916886 -2.49936512 2.12874554 0 1 C0 0.67 0 0.34 0 0 Z " fill="#413025" transform="translate(609,352)"/>
<path d="M0 0 C0 0.33 0 0.66 0 1 C-3.3535976 1.19875508 -6.70787681 1.38195217 -10.0625 1.5625 C-11.00544922 1.61857422 -11.94839844 1.67464844 -12.91992188 1.73242188 C-18.12407194 2.00441578 -22.87353073 1.95987982 -28 1 C-28 0.67 -28 0.34 -28 0 C-19.02958752 -2.16113188 -9.05529045 -1.47841477 0 0 Z " fill="#1F1110" transform="translate(510,349)"/>
<path d="M0 0 C0 0.66 0 1.32 0 2 C-1.46875 3.4453125 -1.46875 3.4453125 -3.5 5.125 C-7.90524012 8.8615876 -11.96599235 12.86943366 -16 17 C-16 12.94040721 -14.48221464 11.99302054 -11.75 9.0625 C-10.96109375 8.20785156 -10.1721875 7.35320312 -9.359375 6.47265625 C-8.58078125 5.65667969 -7.8021875 4.84070313 -7 4 C-6.30390625 3.23558594 -5.6078125 2.47117187 -4.890625 1.68359375 C-3 0 -3 0 0 0 Z " fill="#A5A666" transform="translate(251,425)"/>
<path d="M0 0 C2 1 2 1 2.8125 2.75 C3.96083543 5.21622148 3.96083543 5.21622148 6.5 7.375 C9.1885165 10.19794233 10.04497296 12.26671249 11 16 C6.10990942 13.15692408 2.62642378 10.09367036 0 5 C-0.3125 2.0625 -0.3125 2.0625 0 0 Z " fill="#463628" transform="translate(741,441)"/>
<path d="M0 0 C0.33 0 0.66 0 1 0 C1.90413673 3.83724172 2.10576898 7.37502274 2.0625 11.3125 C2.05347656 12.38113281 2.04445312 13.44976563 2.03515625 14.55078125 C2.02355469 15.35902344 2.01195312 16.16726563 2 17 C1.01 17.33 0.02 17.66 -1 18 C-1.18451025 5.33029613 -1.18451025 5.33029613 0 0 Z " fill="#1E1110" transform="translate(216,519)"/>
<path d="M0 0 C3 1 3 1 4.75 3.25 C6.18671298 6.41076857 6.02214896 7.74770785 5 11 C2.3513141 7.80331012 0.06007659 4.60513403 -2 1 C-1.34 0.67 -0.68 0.34 0 0 Z " fill="#3D3133" transform="translate(749,461)"/>
<path d="M0 0 C3.60883499 1.202945 3.9821893 2.08967626 5.8125 5.3125 C6.27269531 6.09238281 6.73289062 6.87226563 7.20703125 7.67578125 C8 10 8 10 7.13671875 12.29296875 C6.76160156 12.85628906 6.38648438 13.41960937 6 14 C5.73445312 13.36191406 5.46890625 12.72382813 5.1953125 12.06640625 C4.84210937 11.24011719 4.48890625 10.41382813 4.125 9.5625 C3.77695312 8.73878906 3.42890625 7.91507812 3.0703125 7.06640625 C2.1755063 4.84253285 2.1755063 4.84253285 0 4 C0 2.68 0 1.36 0 0 Z " fill="#402F24" transform="translate(772,455)"/>
<path d="M0 0 C5.93002267 -0.37851209 10.47239641 0.89424625 16 3 C15.67 3.66 15.34 4.32 15 5 C10 4 5 3 0 2 C0 1.34 0 0.68 0 0 Z " fill="#221313" transform="translate(577,357)"/>
<path d="M0 0 C5.28 0 10.56 0 16 0 C16 0.66 16 1.32 16 2 C17.98 2.66 19.96 3.32 22 4 C18.7790387 5.07365377 17.76285435 4.93405499 14.55078125 4.22265625 C13.27944336 3.94711914 13.27944336 3.94711914 11.98242188 3.66601562 C11.10134766 3.46685547 10.22027344 3.26769531 9.3125 3.0625 C8.41982422 2.86720703 7.52714844 2.67191406 6.60742188 2.47070312 C4.40330694 1.98744798 2.2010555 1.49697166 0 1 C0 0.67 0 0.34 0 0 Z " fill="#4B3D2B" transform="translate(587,347)"/>
<path d="M0 0 C-3.23461997 2.15641331 -5.67072961 2.81100973 -9.4375 3.6875 C-10.57058594 3.95949219 -11.70367188 4.23148438 -12.87109375 4.51171875 C-15.74916889 4.96085657 -17.31025087 4.98469931 -20 4 C-6.3667426 -0.59225513 -6.3667426 -0.59225513 0 0 Z " fill="#170C0C" transform="translate(614,706)"/>
<path d="M0 0 C6.03748977 0.80499864 12.01270113 1.88482498 18 3 C18 3.33 18 3.66 18 4 C15.9377952 4.054348 13.87517184 4.09294961 11.8125 4.125 C10.66394531 4.14820313 9.51539063 4.17140625 8.33203125 4.1953125 C5.08259628 4.00484152 2.91339479 3.39360127 0 2 C0 1.34 0 0.68 0 0 Z " fill="#1E1110" transform="translate(412,697)"/>
<path d="M0 0 C2 2 2 2 2 5 C2.99 5 3.98 5 5 5 C5 6.65 5 8.3 5 10 C4.67 8.68 4.34 7.36 4 6 C0.52565835 6.84188612 0.52565835 6.84188612 -2 11 C-2 7.7 -2 4.4 -2 1 C-1.34 0.67 -0.68 0.34 0 0 Z " fill="#B2691E" transform="translate(184,505)"/>
<path d="M0 0 C-1.98 0.99 -1.98 0.99 -4 2 C0.29 2 4.58 2 9 2 C9 2.33 9 2.66 9 3 C4.03926578 4.32286246 -0.91111512 4.08893197 -6 4 C-6 3.34 -6 2.68 -6 2 C-7.98 2 -9.96 2 -12 2 C-12 1.67 -12 1.34 -12 1 C-7.9472484 0.01751476 -4.16138263 -0.08159574 0 0 Z " fill="#504B45" transform="translate(442,351)"/>
<path d="M0 0 C0 0.66 0 1.32 0 2 C-0.99 2.33 -1.98 2.66 -3 3 C-2.34 3.66 -1.68 4.32 -1 5 C-3.97 5 -6.94 5 -10 5 C-10.33 3.68 -10.66 2.36 -11 1 C-3.375 0 -3.375 0 0 0 Z " fill="#3E2D23" transform="translate(548,346)"/>
<path d="M0 0 C2 2 2 2 2 6 C2.66 6 3.32 6 4 6 C7 10.38461538 7 10.38461538 7 13 C5.109375 12.73828125 5.109375 12.73828125 3 12 C1.953125 10.29296875 1.953125 10.29296875 1.25 8.1875 C1.00765625 7.50042969 0.7653125 6.81335938 0.515625 6.10546875 C0 4 0 4 0 0 Z " fill="#372C24" transform="translate(231,578)"/>
<path d="M0 0 C2.94721162 2.74395564 5.19168608 5.38337216 7 9 C6.67 9.66 6.34 10.32 6 11 C0 5 0 5 -0.0625 2.4375 C-0.041875 1.633125 -0.02125 0.82875 0 0 Z " fill="#362A22" transform="translate(239,593)"/>
<path d="M0 0 C2.12046792 3.53411321 2.53199289 6.94393835 3 11 C2.01 11.33 1.02 11.66 0 12 C-0.76173392 7.6835078 -1.16063604 4.25566547 0 0 Z " fill="#221312" transform="translate(217,539)"/>
<path d="M0 0 C3.63 1.32 7.26 2.64 11 4 C10.01 4.66 9.02 5.32 8 6 C8.33 6.66 8.66 7.32 9 8 C6.69 7.67 4.38 7.34 2 7 C3.32 6.67 4.64 6.34 6 6 C4.60804085 3.2160817 2.84424221 3.02101003 0 2 C0 1.34 0 0.68 0 0 Z " fill="#514C47" transform="translate(378,686)"/>
<path d="M0 0 C1.60407328 -0.02708567 3.2082785 -0.04643483 4.8125 -0.0625 C5.70582031 -0.07410156 6.59914063 -0.08570313 7.51953125 -0.09765625 C10 0 10 0 13 1 C13 1.66 13 2.32 13 3 C11.20759337 2.88610125 9.41605165 2.75852313 7.625 2.625 C6.12839844 2.52058594 6.12839844 2.52058594 4.6015625 2.4140625 C2 2 2 2 0 0 Z " fill="#221312" transform="translate(563,355)"/>
<path d="M0 0 C0.33 0.99 0.66 1.98 1 3 C-0.328125 5.04296875 -0.328125 5.04296875 -2.25 7.1875 C-3.18585937 8.26064453 -3.18585937 8.26064453 -4.140625 9.35546875 C-6 11 -6 11 -9 11 C-7.44095325 7.17324889 -4.96833913 4.81992217 -2 2 C-1.34 1.34 -0.68 0.68 0 0 Z " fill="#AD651D" transform="translate(777,562)"/>
<path d="M0 0 C0.66 0 1.32 0 2 0 C2.33 3.3 2.66 6.6 3 10 C2.01 10 1.02 10 0 10 C0 6.7 0 3.4 0 0 Z " fill="#9F9F62" transform="translate(213,542)"/>
<path d="M0 0 C4.571279 0.54855348 8.67435795 1.41744803 13 3 C13 3.33 13 3.66 13 4 C11.20741442 3.91306859 9.41584856 3.80489496 7.625 3.6875 C6.62726563 3.62949219 5.62953125 3.57148437 4.6015625 3.51171875 C3.74304688 3.34285156 2.88453125 3.17398438 2 3 C1.34 2.01 0.68 1.02 0 0 Z " fill="#211211" transform="translate(385,691)"/>
<path d="M0 0 C0.66 1.32 1.32 2.64 2 4 C0.3125 5.125 0.3125 5.125 -2 6 C-4.75 5.125 -4.75 5.125 -7 4 C-7 3.34 -7 2.68 -7 2 C-4.69 2.33 -2.38 2.66 0 3 C0 2.01 0 1.02 0 0 Z " fill="#473728" transform="translate(782,475)"/>
<path d="M0 0 C0.89203125 0.01804687 1.7840625 0.03609375 2.703125 0.0546875 C3.71632813 0.08949219 3.71632813 0.08949219 4.75 0.125 C3.60546875 1.64453125 3.60546875 1.64453125 1.75 3.125 C-0.94921875 3.19921875 -0.94921875 3.19921875 -3.9375 2.8125 C-5.42830078 2.63267578 -5.42830078 2.63267578 -6.94921875 2.44921875 C-7.70847656 2.34222656 -8.46773437 2.23523438 -9.25 2.125 C-6.03817851 0.21891902 -3.71117397 -0.09766247 0 0 Z " fill="#31201B" transform="translate(573.25,712.875)"/>
<path d="M0 0 C1.32 0.99 2.64 1.98 4 3 C3.67 4.32 3.34 5.64 3 7 C2.01 7 1.02 7 0 7 C-0.38133299 5.0085944 -0.71325582 3.00720923 -1 1 C-0.67 0.67 -0.34 0.34 0 0 Z " fill="#251514" transform="translate(221,561)"/>
<path d="M0 0 C1.875 0.3125 1.875 0.3125 4 1 C6.1519437 4.22791555 6.20086443 5.28400809 6 9 C3.03134491 6.45543849 1.6380249 3.51005335 0 0 Z " fill="#483829" transform="translate(761,441)"/>
<path d="M0 0 C2.625 0.9375 2.625 0.9375 5 2 C5 2.33 5 2.66 5 3 C1.37 3.33 -2.26 3.66 -6 4 C-2 1 -2 1 0 0 Z " fill="#92B9C8" transform="translate(546,697)"/>
<path d="M0 0 C1.98 0 3.96 0 6 0 C6 0.99 6 1.98 6 3 C4.02 3 2.04 3 0 3 C0 2.01 0 1.02 0 0 Z " fill="#96C0CE" transform="translate(447,626)"/>
<path d="M0 0 C1.98 0 3.96 0 6 0 C6 0.99 6 1.98 6 3 C4.02 3 2.04 3 0 3 C0 2.01 0 1.02 0 0 Z " fill="#96C0CE" transform="translate(489,447)"/>
<path d="M0 0 C0.99 0 1.98 0 3 0 C4.35439668 2.70879335 4.06501451 5.00933268 4 8 C1.84622436 5.37801226 0.59927826 3.35595828 0 0 Z " fill="#564832" transform="translate(225,579)"/>
<path d="M0 0 C0.33 0 0.66 0 1 0 C0.38461538 6.52307692 0.38461538 6.52307692 -1.5625 8.9375 C-2.036875 9.288125 -2.51125 9.63875 -3 10 C-2.49287967 6.28111761 -1.88391785 3.26545761 0 0 Z " fill="#050303" transform="translate(764,566)"/>
<path d="M0 0 C0.33 0.66 0.66 1.32 1 2 C0.34 1.67 -0.32 1.34 -1 1 C-0.67 0.67 -0.34 0.34 0 0 Z M-2 2 C-0.5 3.3125 -0.5 3.3125 1 5 C1 5.99 1 6.98 1 8 C0.34 8 -0.32 8 -1 8 C-1.33 8.66 -1.66 9.32 -2 10 C-2 7.36 -2 4.72 -2 2 Z " fill="#1E1110" transform="translate(221,493)"/>
<path d="M0 0 C1.98 0.66 3.96 1.32 6 2 C5.67 2.99 5.34 3.98 5 5 C2.525 4.01 2.525 4.01 0 3 C0 2.01 0 1.02 0 0 Z " fill="#251514" transform="translate(269,632)"/>
<path d="M0 0 C0.99 0.33 1.98 0.66 3 1 C2.67 2.65 2.34 4.3 2 6 C1.01 5.67 0.02 5.34 -1 5 C-0.67 3.35 -0.34 1.7 0 0 Z " fill="#241413" transform="translate(219,553)"/>
</svg>
